/* XPM */
static char *_8f4e0e3de87423dd2e31c743f83cbbeVFb2FIs72eiW1s5T[] = {
/* columns rows colors chars-per-pixel */
"64 64 198 2 ",
"   c #7F2A24",
".  c #793835",
"X  c #78403D",
"o  c #6D5352",
"O  c #6E5857",
"+  c #675C5C",
"@  c #6C5C5C",
"#  c #735A59",
"$  c #6D605F",
"%  c #675E60",
"&  c #6A6464",
"*  c #676969",
"=  c #696969",
"-  c #746564",
";  c #7D6867",
":  c #736D6C",
">  c #7C6D6C",
",  c #7B706F",
"<  c #756F70",
"1  c #757575",
"2  c #7A7474",
"3  c #787878",
"4  c #7E7E7E",
"5  c #871C14",
"6  c #8B1D14",
"7  c #871F19",
"8  c #941F16",
"9  c #981F16",
"0  c #84231C",
"q  c #8A241C",
"w  c #952017",
"e  c #9A2117",
"r  c #94221A",
"t  c #9C2219",
"y  c #A42419",
"u  c #AD261B",
"i  c #AA271C",
"p  c #B2271B",
"a  c #B8271C",
"s  c #B3281D",
"d  c #BC2A1E",
"f  c #832B25",
"g  c #8A2B24",
"h  c #8C2F28",
"j  c #9D2F27",
"k  c #85302B",
"l  c #8C322C",
"z  c #93342D",
"x  c #9B352D",
"c  c #8C3732",
"v  c #833A36",
"b  c #953B35",
"n  c #9A3B34",
"m  c #9A3C36",
"M  c #A42C23",
"N  c #AA2D23",
"B  c #B32D23",
"V  c #BD2C21",
"C  c #AD3026",
"Z  c #A3362E",
"A  c #AB352C",
"S  c #B63229",
"D  c #A03730",
"F  c #A43C34",
"G  c #A93B33",
"H  c #A23F38",
"J  c #B53C34",
"K  c #BB3D33",
"L  c #C02B1F",
"P  c #C52D21",
"I  c #CB2D22",
"U  c #CD2E22",
"Y  c #D42F21",
"T  c #D43124",
"R  c #DB3224",
"E  c #DA3225",
"W  c #D5352A",
"Q  c #DB362B",
"!  c #DD372C",
"~  c #D6382F",
"^  c #DD392E",
"/  c #C43E34",
"(  c #D53C33",
")  c #DD3C32",
"_  c #E53323",
"`  c #E83323",
"'  c #E63729",
"]  c #E2392D",
"[  c #E13D30",
"{  c #9F413B",
"}  c #AA423B",
"|  c #B4433B",
" . c #C14037",
".. c #C44239",
"X. c #CA443C",
"o. c #DA4238",
"O. c #E54235",
"+. c #E2453B",
"@. c #844E49",
"#. c #8A4E49",
"$. c #9F4A44",
"%. c #84524E",
"&. c #97544F",
"*. c #8D5551",
"=. c #875A57",
"-. c #955652",
";. c #985550",
":. c #945955",
">. c #9C5955",
",. c #9E5C59",
"<. c #AA4944",
"1. c #A35A55",
"2. c #A25D59",
"3. c #BC5A55",
"4. c #B5625E",
"5. c #BB645D",
"6. c #826462",
"7. c #8B6867",
"8. c #826D6C",
"9. c #906360",
"0. c #9A6D69",
"q. c #837675",
"w. c #827877",
"e. c #8C7976",
"r. c #837778",
"t. c #827979",
"y. c #837B7B",
"u. c #857A79",
"i. c #8A7C7C",
"p. c #9C7572",
"a. c #947875",
"s. c #947D7C",
"d. c #B26560",
"f. c #A67774",
"g. c #A37878",
"h. c #BA7976",
"j. c #BC7A76",
"k. c #C64B43",
"l. c #D14941",
"z. c #D6554E",
"x. c #C65B55",
"c. c #D15651",
"v. c #D45C55",
"b. c #DC5B54",
"n. c #E14D45",
"m. c #E4524B",
"M. c #E75D56",
"N. c #CB625D",
"B. c #DD615B",
"V. c #E4625B",
"C. c #E9655E",
"Z. c #CC6662",
"A. c #CA6964",
"S. c #DE6D68",
"D. c #DE726E",
"F. c #C27A76",
"G. c #C27D79",
"H. c #E96761",
"J. c #EA6964",
"K. c #E86C67",
"L. c #E0736E",
"P. c #E97069",
"I. c #EB7C77",
"U. c #7F807F",
"Y. c #83807F",
"T. c #9B807E",
"R. c #B6817E",
"E. c #C3817D",
"W. c #EA807B",
"Q. c #7F7F80",
"!. c #897F80",
"~. c #7F8080",
"^. c #828181",
"/. c #8A8686",
"(. c #8E8A8A",
"). c #928585",
"_. c #998787",
"`. c #928C8C",
"'. c #9C8E8D",
"]. c #958F90",
"[. c #BD8785",
"{. c #AB908F",
"}. c #A69191",
"|. c #AE9291",
" X c #B59594",
".X c #B89694",
"XX c #B79997",
"oX c #B89896",
"OX c #C58986",
"+X c #D08F8C",
"@X c #C5918E",
"#X c #C49492",
"$X c #CE9190",
"%X c #D39291",
"&X c #EB8683",
"*X c #ED8A86",
"=X c #ED8E8C",
"-X c #EC908E",
/* pixels */
"d d d a e w w e y y y u T E E T t w w e u s s s I U U I t w w e y y y y u s s a W ! ! Q u y y y u s s p y y y y P U U I a s s s ",
"d d L a e w w e y y y u T E E T t w w e u s s a I U U P t w w w y y y y u s s a W ! ! Q u y y y u s s s y y y y P U U I a s s s ",
"d d d a e 8 w e y y y u T E E Y t 8 8 e u p p a I U U I t 8 8 8 y y y y p p p a W Q Q Q p y y y p p p p u y y y L U U U a s s s ",
"P P P V z z z z x x x Z  .....K z l l z D F F G J K K J x l z z x x x x F F F G ..X.X...Z z z z x Z Z Z x x x x J K K K B u u u ",
"Q Q Q X.q.4 t.3 , : : 2 t.u.u.t.2 : : 2 w.t.t.t.t.t.u.t.t.t.t.t.t.t.t.t.t.t.t.t.u.u.u.t.: & & & & & & & : 2 , 2 w.u.t.q.n y y y ",
"! ! Q X.u.~.~.4 1 1 1 1 4 4 4 4 1 1 1 1 4 4 4 4 4 4 4 4 4 4 4 4 4 4 4 4 4 4 4 4 4 4 4 4 = = = = = = = = 1 1 1 1 4 Q.~.y.m y y y ",
"! ! Q X.u.U.4 4 1 1 1 1 4 4 4 4 1 1 1 1 4 4 4 4 4 4 4 4 4 4 4 4 4 4 4 4 4 4 4 4 4 4 4 4 = * = = = = = = 1 1 1 1 4 4 4 t.m y y y ",
"Q Q Q X.q.4 4 4 1 1 1 1 4 4 4 4 1 1 1 1 4 4 4 4 4 4 4 4 4 4 4 4 4 4 4 4 4 4 4 4 4 4 4 4 1 = = = = = = = 1 1 1 1 4 4 4 t.m y y y ",
"E E E / , 1 1 1 = = = = = = = = 1 1 1 1 = = = = & + + + + + + & 1 1 1 1 1 1 1 1 1 1 1 1 4 4 4 4 4 4 4 4 4 4 4 4 4 4 4 t.H p u p ",
"E E E / > 1 1 1 = = = = = = = = 1 1 1 1 = = = * + + + + + + + + 1 1 1 1 1 1 1 1 1 1 1 1 4 4 4 4 4 4 4 4 4 4 4 4 4 4 4 t.H p s s ",
"E E E / > 1 1 1 = = = = = = = = 1 1 1 1 = = = = % + + + + + + & 1 1 1 1 1 1 1 1 1 1 1 1 4 4 4 4 4 4 4 4 4 4 4 4 4 4 4 t.H p s s ",
"T E E / , 1 1 1 = = = = = = = = 1 1 1 1 @ @ @ @ o o o o o o o o : 1 1 1 1 1 1 1 1 1 1 1 4 4 4 4 4 4 4 4 4 4 4 4 4 4 4 4 m p u p ",
"U U U K w.4 4 4 4 4 4 4 1 1 1 1 = = = & f 0 0 0 0 0 0 0 0 0 0 f $ = = = = = = = 1 1 1 1 1 1 1 1 4 4 4 4 4 1 1 1 1 1 1 1 b y y y ",
"U U U K w.U.4 4 4 4 4 4 1 1 1 1 = = = @ 0 5 5 5 5 5 5 5 5 5 5 0 @ = = = = = = = 1 1 1 1 1 1 1 1 4 4 4 4 1 1 1 1 1 1 1 1 b y y y ",
"U U U K w.4 4 4 4 4 4 4 1 1 1 1 = = * @ 0 5 5 5 5 5 5 5 5 5 5 0 + * * * = = = = 1 1 1 1 1 1 1 1 4 4 4 4 1 1 1 1 1 1 1 1 b y y y ",
"I I I K u.4 4 4 4 4 4 4 > ; ; ; @ @ @ o q 6 6 6 8 8 8 8 r r r h # @ @ @ @ @ @ $ 1 1 1 1 1 1 1 1 4 4 4 4 1 1 1 1 1 1 1 2 b y y y ",
"a a s G t.4 4 4 3 1 1 ; A C C N q 0 0 q u p p a Y E E E b.B.B.v.C N N M q 0 0 f > 4 4 4 1 1 1 1 * & & & < 1 1 1 4 4 4 4 m y y y ",
"s s p A t.4 4 4 1 1 1 6.B a a p 6 5 5 6 p a a d _ ` ` ' M.J.J.V.V p a u 6 5 5 0 8.^.4 4 1 1 1 1 & + + + : 1 1 1 4 4 4 t.m y y y ",
"s s p A t.4 4 4 1 1 1 6.B a a p 6 5 5 6 p a a d E ` ` ' M.J.J.V.V p p u 6 5 5 0 8.~.4 4 1 1 1 1 & + + + : 1 1 1 4 4 4 t.m y y y ",
"u s p A u.^.^.4 1 1 1 ; A B B N 8 5 5 8 s d a L Q ' ' ] M.C.C.M.S B B N q q q g 8.~.t.4 4 1 1 1 @ o o O ; > > > 4 4 4 4 b y y y ",
"y y y Z ).(.(./.1 1 1 2 a.a.a.0.N u u p Y E E Q P.I.I.I.+.' ' O.j.R.R.R.a.e.a.e.t.4 U.U.4 4 4 4 { N C A / X.X.X.7.1 1 2 c 9 e e ",
"y y y D ).`.`.(.3 1 1 4 (.`.].s.C p p a _ ` ` ' W.-X-X&XO.` ` [ OXoX.X.X`.`.`.`.^.4 4 4 4 4 4 t.G a a a Q ] ] ) 9.1 1 1 c 8 w w ",
"y y y D ).`.`.(.1 1 1 4 (.`.`.s.C p p a _ ` ` ' I.=X-X&XO.` ` [ [..X.X X`.`.`.(.^.4 4 4 4 4 4 t.G a a a W ] ] ) 9.1 1 1 c 8 w w ",
"y y y Z ).`.`./.1 1 1 4 (.`.`.s.A s s B E ' ' [ W.-X-X&X+.' ' o.[..X X X`.`.(.(.^.4 4 4 4 4 4 t.F B B B ~ ) ) ( 9.1 1 1 c 9 e w ",
"y y y x u.^.^.^.4 4 4 4 ^.^.^.^.a.p.p.p.j.G.F.G.@X#X#X#XE.G.G.j.'.'.'.`.4 4 4 4 4 4 4 4 4 1 1 2 8.7.7.7.p.g.g.g.u.4 4 4 m u i i ",
"y y y x w.4 4 4 4 4 4 4 4 4 4 ^.(.`.`.`. X.X.X.X.X.X.X.X.X.XoX X`.`.`.(.4 1 1 1 4 4 4 4 1 1 1 1 4 ~.~.~.(.`.`.`.^.4 4 t.H p s s ",
"y y y x t.~.4 4 4 4 t.4 4 4 4 ^.(.`.`.`. X.X.X.X.X.X.X.X.X.X.X X`.`.`.(.4 1 1 1 4 4 4 4 1 1 1 1 4 4 4 ^.(.`.`.`.^.4 4 y.H p s s ",
"y y y x w.4 4 4 4 4 4 4 4 4 4 ^.(.`.`.`.|. X X X X X X X X X X X`.`.`.(.4 1 1 1 4 4 4 4 1 1 1 1 4 4 4 4 (.`.`.`.^.4 4 y.H p s s ",
"a a a A - & & & & & & & = = = 1 4 4 4 4 2 2 2 2 y.y.y.t.t.t.t.y.^.^.^.^.4 4 4 4 4 3 4 1 & & & & & & & & : : : : 4 4 4 y.H p s s ",
"d L L A o + + + + + + + * = = = 1 1 1 1 = * * = 1 1 1 1 1 1 1 1 4 4 4 4 4 4 4 4 1 1 1 1 & + + + + + + + + + + + 2 !.4 y.H p s s ",
"d L L A O + + + + + + + * = * = 1 1 1 1 = = = = 1 1 1 1 1 1 1 1 4 4 4 4 4 4 4 4 1 1 1 1 & + + + + + + + + + + + 2 ~.~.t.H p s s ",
"a d d A # @ @ @ @ @ @ @ & & & * 1 1 1 1 = = = = 1 1 1 1 1 1 1 4 4 ^.^.t.4 t.t.w.2 > , : + O O O O @ @ O @ @ @ @ q.u.u.q.F p s s ",
"t y t i / ../ k.N.Z.Z.3.k   f v i.(.(./.4 4 4 4 4 4 4 4 /.(.(.(.(.(.(.i.v k k k Z A A A g     f x Z Z A x.Z.Z.Z.k.X.X.X.S s s s ",
"w w w y ! ] ] O.C.J.J.v.r 5 5 g !.`.`.`.^.4 4 4 4 4 4 ^.(.`.`.`.`.`.`.s.g 5 5 6 p a a a 8 5 5 6 u a a a b.J.J.H.+.] ] ] V s s s ",
"w w w y ^ ] ] O.C.J.J.v.r 5 5 g s.`.`.`.^.4 4 4 4 4 4 ^.(.`.`.`.`.`.`.s.g 5 5 6 p a a p 6 5 5 5 u a a V b.J.J.H.+.] ] ^ V s s s ",
"w w w y Q ^ ^ O.C.H.H.v.r 5 7 h s.`.`.(.^.4 4 4 ^.^.^.^.(.`.`.`.`.`.`.s.h 7 7 q B B B B r 5 5 6 u V V V b.H.H.C.+.) ) ) V p s p ",
"t t y t t t t N o.+.+.l.9.6.6.6.Y.^.^.^.t.4 4 ^.(.(.(.(.`.`.`.`.`.`.`.(.8.6.6.7.f.h.h.h.x.c.c.c.S.L.L.L.n.+.+.+.A.G.G.F.F t t t ",
"y y y t 5 5 5 w Q ^ ] X.u.~.~.~.~.~.4 4 4 4 4 ^.(.`.`.`.`.`.`.`.`.`.`.`.^.~.~.^. XoXoX.XL.J.J.K.*X-X-X=Xn.! ] ) G.XXXX X{ 8 w w ",
"y y y t 5 5 5 e Q ] ] X.w.Q.4 4 4 Q.4 4 4 4 4 ^.(.`.`.`.`.`.`.`.`.`.`.`.^.4 4 ^.|..X.X.XD.H.J.J.&X-X=X*Xn.] ] ) G..X.X X{ 8 w w ",
"y y y t 5 5 5 r ~ ) ^ X.w.Q.4 4 4 4 4 4 4 4 4 4 (.`.`.`.`.`.`.`.`.`.`.(.^.4 4 ^.|..X.X.XD.J.J.K.&X-X-X*Xn.) ) ) G..X.X X{ 8 w 8 ",
"y y y j =.6.6.6.9.9.9.7.t.4 4 4 4 4 4 4 4 4 1 1 1 1 1 1 1 1 1 1 4 4 4 4 4 4 4 t.t.i.y.i.[.OXOXOX@X#X#X#XE.F.F.F.s.t.i.u.H s s s ",
"y y y x t.~.~.4 1 1 1 3 4 4 4 4 1 1 1 1 1 1 1 1 = * * * * * * = 1 1 1 1 4 4 4 4 1 1 1 2 {..X.X.X.X.X.X.X.X.XoX.Xt.1 1 1 G L L d ",
"y y y x t.4 4 4 1 1 1 1 4 4 4 4 1 1 1 1 1 1 1 1 = * * * * * = = 1 1 1 1 4 4 4 4 1 1 1 2 {..X.X.X.X.X.X.X.X.X.X Xt.1 1 1 G L d d ",
"y y y x t.Q.4 4 1 1 1 1 4 4 4 4 1 1 1 1 1 1 1 1 = * * * * * = = 1 1 1 1 4 ~.4 4 1 1 1 2 {..X.X.X.X.X.X.X.X.X.X Xy.1 1 2 G L d d ",
"u u u Z t.Q.4 4 4 4 4 4 1 1 1 1 = = = = & * * * & + + + & & & * 4 4 4 4 4 ~.Q.4 4 4 4 4 /.).).).'.'.'.'.'.'.'.'.^.4 4 4 } I P P ",
"s s p A t.Q.4 4 4 4 4 4 = * = = = = = * + + + + + + + + + + + & 4 4 4 4 4 4 Q.4 4 4 4 4 4 4 4 4 (.`.`.`.`.`.`.`.^.y.4 y.| U I I ",
"s s p A t.Q.4 4 4 4 4 4 = = = = * = = * + + + + + + + + + + + & 4 4 4 4 4 4 4 4 4 4 U.U.4 4 4 ^.(.`.`.`.`.`.`.`.^.4 4 y.| U U U ",
"s s p A t.Q.4 4 4 4 4 4 = = = = * * = * + + + + + + + + + + + & 4 4 4 4 4 4 4 4 4 4 U.4 4 4 4 Y.(.`.`.`.`.`.`.`.^.4 4 y.| U U U ",
"V P L J 2 4 4 4 4 4 4 > X . . v <.<.<.<.m b b b } <.<.<.v . . . - : = : 4 4 4 4 4 4 4 t.&.$.$.<.3.3.3.3.T.`.`.`.4 1 1 : D a a a ",
"I U U K > 1 1 1 1 1 1 - 0 5 5 8 W ] ] ! d a s d Q ] ] Q e 5 5 0 o + + & 4 4 4 4 4 4 Q.r.A a a a Q ] ] ) f.`.`.`.1 * * * z y y y ",
"I I U K > 1 1 1 1 1 1 - 0 5 5 r W ] ] ! d a a a Q ] ] Q w 5 5 0 o + + & 4 4 4 4 4 4 Q.t.A a a a Q ] ] ) f.`.`.`.1 * = * z y y y ",
"I I U K > 1 1 1 1 1 1 - 0 5 5 8 W ] ] ! d s s a Q ] ] Q w 5 5 0 o + + & 4 4 4 4 4 4 Q.r.A a s a Q ] ] ) f.`.`.`.1 * = * z y y y ",
"a a a G u.^.^.^.4 4 4 2 =.*.*.;.z.m.m.m.v.v.v.v.Z.A.A.A.:.*.*.=.- = = : 2 4 4 4 4 4 4 t.,.1.1.1.4.4.4.d.e.^.t.t.1 = = : c t t e ",
"y y y Z ).`.`.(.^.4 4 ^.`.`.`._.S.J.J.K.*X-X-X-X#X.X.X.X].`.`.(.4 1 1 1 1 1 1 1 4 Q.4 ^.(.`.`.`.`.`.`.`.4 1 1 1 1 1 1 1 c 8 w w ",
"y y y Z ).`.`.(.^.4 4 ^.`.`.`._.S.J.J.K.*X=X=X-X#X.X.X X'.`.`.(.4 1 1 1 1 1 1 1 4 Q.4 ^.(.`.`.`.`.`.`.`.4 1 1 1 1 1 1 1 c 8 w w ",
"y y y Z ).`.`.(.^.4 4 ^.`.`.`._.S.H.H.K.*X=X=X-X#X.X.X.X'.`.`.(.4 1 1 1 1 1 1 1 4 4 4 ^.(.`.`.`.`.`.`.`.4 1 1 1 1 1 1 1 c 8 w w ",
"t t t z u.^.^.^.4 4 4 4 /././.).h.j.j.G.+X%X%X$X|.}.}.}.(./././.4 4 4 4 4 4 4 4 4 4 4 ^././././.`.`.`.`.^.Y.Y.Y.Y.Y.Y.t.} a a a ",
"w w 8 h : 1 1 1 1 1 1 1 4 4 4 ^.(.`.`.`. X.X.X X`.`.`.`.^.4 4 4 4 4 4 4 4 4 4 4 4 4 4 4 4 4 4 ^.(.`.`.`.`.`.`.`.`.`.`.`.k.E E E ",
"w w 8 h : 1 1 1 1 1 1 1 4 4 4 ^.`.`.`.`. X.X.X X'.`.`.`.^.4 4 4 4 4 4 4 4 4 4 4 4 4 4 4 4 4 4 ^.(.`.`.`.`.`.`.`.`.`.`.`.k.E E E ",
"w w 8 h : 1 1 1 1 1 1 3 Q.~.~.^.(.`.`.`..X.X.X.X'.`.`.`.^.~.~.~.Q.Q.4 Q.~.~.~.~.~.~.~.4 ~.~.~.~.(.`.`.`.`.`.`.`.`.`.`.`.k.E E E ",
"y u u M #.#.#.#.@.@.@.@.-.-.-.-.,.,.,.2.4.5.5.5.>.:.:.:.-.-.-.-.>.1.1.>.-.*.*.*.%.%.%.%.1.1.1.1.2.,.,.,.,.,.,.,.,.,.,.>.K I P P ",
"V d L a y y y y 8 8 8 e u p p p p p p p d d d a t 8 8 w u p p a I U U I u y y y 6 5 5 6 I E E E a p p p p p p p y y y y u s s s ",
"V d d a u y y y w w w e u s s s s s s a d d d a t w w w u s s a I U U I u y y y 6 5 5 6 I E E E a s s s s s s s u y y y u s s s ",
"V d d a u y y y w w w e u s s s s s s s d d d a e w w w u s s a I U U I u y y y 6 5 5 6 I E E E a s s s s s s s u y y y u s s s "
};
