/* XPM */
static char *_dfe28ba861b430ec0b9b834f147a0d1zbnISBmJnASJQTWP[] = {
/* columns rows colors chars-per-pixel */
"64 64 146 2 ",
"   c #1E1B1A",
".  c #251D17",
"X  c #2B1F16",
"o  c #231D1B",
"O  c #2A1E1C",
"+  c #311F13",
"@  c #2C2015",
"#  c #26201B",
"$  c #2B211A",
"%  c #342214",
"&  c #3B2514",
"*  c #3E2816",
"=  c #32231A",
"-  c #3A251B",
";  c #37281F",
":  c #3C2A1D",
">  c #1E1920",
",  c #231B21",
"<  c #2A1E22",
"1  c #2E2023",
"2  c #352525",
"3  c #382624",
"4  c #372822",
"5  c #3C2C20",
"6  c #41250F",
"7  c #4B270F",
"8  c #4B290F",
"9  c #542D0F",
"0  c #412511",
"q  c #492711",
"w  c #422913",
"e  c #4A2C13",
"r  c #422C1D",
"t  c #522E12",
"y  c #592F14",
"u  c #512E18",
"i  c #4C311E",
"p  c #533115",
"a  c #5B3314",
"s  c #53341E",
"d  c #5A351B",
"f  c #5E381B",
"g  c #633615",
"h  c #633816",
"j  c #6C3B16",
"k  c #663B19",
"l  c #6B3D1A",
"z  c #713D17",
"x  c #713F1A",
"c  c #422D21",
"v  c #492F27",
"b  c #472D2A",
"n  c #463122",
"m  c #4C3222",
"M  c #523622",
"N  c #593422",
"B  c #563824",
"V  c #5C3B25",
"C  c #513128",
"Z  c #5A372C",
"A  c #5C3929",
"S  c #643E26",
"D  c #6A3F23",
"F  c #623D28",
"G  c #6A3E2A",
"H  c #733F21",
"J  c #6E411D",
"K  c #74421C",
"L  c #7B451E",
"P  c #7E481F",
"I  c #694125",
"U  c #664128",
"Y  c #6C4428",
"T  c #764523",
"R  c #7C4620",
"E  c #7E4923",
"W  c #76462F",
"Q  c #7B462A",
"!  c #75492A",
"~  c #7D4B29",
"^  c #774630",
"/  c #80451E",
"(  c #83491F",
")  c #814720",
"_  c #844B21",
"`  c #8A4D22",
"'  c #834E2B",
"]  c #8A4D2B",
"[  c #8F5024",
"{  c #85512C",
"}  c #8B522C",
"|  c #945325",
" . c #995626",
".. c #92552B",
"X. c #9E5728",
"o. c #95582F",
"O. c #96592F",
"+. c #9E5A29",
"@. c #9D592A",
"#. c #9F592A",
"$. c #874E30",
"%. c #8C5131",
"&. c #965631",
"*. c #935830",
"=. c #9C5A32",
"-. c #9B5D30",
";. c #9C5D30",
":. c #A35B2B",
">. c #A45B2B",
",. c #A35C29",
"<. c #A65D2B",
"1. c #A35B2C",
"2. c #A45B2C",
"3. c #A45C2D",
"4. c #AA5F2C",
"5. c #A55E32",
"6. c #AB5F30",
"7. c #AC612C",
"8. c #B0632E",
"9. c #B2652D",
"0. c #B8672F",
"q. c #B5682F",
"w. c #B8682F",
"e. c #A66232",
"r. c #AC6132",
"t. c #B36532",
"y. c #B76830",
"u. c #B66933",
"i. c #BA6931",
"p. c #BC6A30",
"a. c #BC6B33",
"s. c #BE6F35",
"d. c #C36F33",
"f. c #C26E34",
"g. c #C27034",
"h. c #C77135",
"j. c #C87134",
"k. c #CB7436",
"l. c #C77338",
"z. c #C87338",
"x. c #CD7638",
"c. c #D07537",
"v. c #D17738",
"b. c #D37939",
"n. c #D97B3A",
"m. c #D97D3B",
/* pixels */
"0.w.9.h X ;.m.d.0.0.0.0.w.+.e : l.b.p.0.0.0.0.w.( % I m.k.w.0.0.0.w.9.h X ;.m.d.0.0.0.0.w.+.e : z.b.p.0.0.0.0.w.( % S m.k.w.0.9.",
"[ [ ` a @ ;.9.[ [ [ [ [ | ) w : s.+.[ [ [ [ [ | l % U g.| [ [ [ [ [ ` a @ -.9.[ [ [ [ [ | ) w : s.+.[ [ [ [ [ | l % U g.| [ [ ` ",
"_ _ E p # } X.) _ _ _ _ ) K w 4 7.` _ _ _ _ _ ) k % A 7._ _ _ _ _ _ E p # } X.) _ _ _ _ _ K w 4 r.` ) _ _ _ _ ) k % Z 7._ _ _ ) ",
"a a a e $ s h a a a a a a d w $ h a a a a a a a p % - k a a a a a a a e $ s h a a a a a a d w $ h a a a a a a a p = - k a a a a ",
"@ X O O , o O O $ $ $ X X O O > O O O $ $ @ X O O o o O O O $ $ X X O O , o O O O $ $ X X O O > O O O $ $ @ X O O o o O O O $ $ ",
"} } W W W ^ ^ ^ N X n } ' W W ^ ^ ^ W r . U } ~ W W ^ ^ ^ G % $ ~ } W W W ^ ^ ^ N X n } ' W W ^ ^ ^ W r . U } ~ W W ^ ^ ^ G %   ",
"m.i.<.:.>.2.1.3.L % I v.8.<.>.2.1.1.+.g X ;.h.4.:.>.2.1.3.| 7 : l.i.<.:.>.2.1.3.L % U v.8.<.>.2.2.1.+.g X ;.h.4.:.>.2.1.3.| 7 o ",
"j.[ _ _ _ _ _ _ j % F y._ _ _ _ _ _ ) a O O.<.) _ _ _ _ _ L 8 ; y.[ _ _ _ _ _ _ j % F y._ _ _ _ _ _ ) a X O.<.) _ _ _ _ _ L 8   ",
"| L K K K K K K g % i ` K K K K K K x y X I ( K K K K K K j e = _ L K K K K K K g % i ` K K K K K K x y X I ( K K K K K K j e   ",
"0 0 & & 0 & & 6 0 @ X 0 0 & & 0 & 0 0 & . % 0 & & & & & 6 0 % o & 0 & & 0 & & 6 0 @ X 0 0 & & & & 0 6 & . % 0 & & & & & 6 0 &   ",
"c c : @ o ; n c r r 5 r r ; . . c n c r : : r r = . @ n n r r 5 r r : @ o ; n c r r 5 r r ; . . c n c r : 5 r r = . @ n n r r : ",
"7.7.<.a X O.x.y.7.7.7.7.7.| w ; s.g.7.7.7.7.7.7.L % S x.p.7.7.7.7.7.<.a X O.x.y.7.7.7.7.7.| w ; s.h.7.7.7.7.7.7.L % F x.p.7.7.<.",
"` ` _ d $ -.7.` ` ` ` ` ` L w ; s. .` ` ` ` ` ` l % U p.[ ` ` ` ` ` _ d @ -.7.` ` ` ` ` ` L w ; s. .` ` ` ` ` ` l % U p.[ ` ` _ ",
") ) R p # '  .) ) ) ) ) ) K w 4 1.` ) ) ) ) ) E h % B <.) ) ) ) ) ) R p # '  .) ) ) ) ) ) K w 4 2.` ) ) ) ) ) E k % B <.) ) ) R ",
"p p p e . e a p p p p p p p w # p p p p p p p p e % = a p p p p p p p e O e a p p p p p p p w # p p p p p p p p e % = a p p p p ",
"@ @ O < , , < < O . . @ O < < , < < < . o @ X O < , , < < O . . @ X O < , , < < O . # @ O O < , < < < . o @ X O < , , < < O . o ",
"5.5.%.%.%.%.%.%.D X m 5.=.%.%.%.%.%.$.u . ! e.&.%.%.%.%.%.Q & = O.5.%.%.%.%.%.%.D X m 5.=.%.%.%.%.%.$.u . ! e.&.%.%.%.%.%.Q &   ",
"n.8.+.X.X.X.X.+.L % U k.<.X.X.X.X.X. .g X ;.d.:.X.X.X. .+.` 8 : h.8.+.X.X.X.X.+.L % U k.<.X.X.X.X.X. .g X ;.d.:.X.X.X.X.+.` 7 o ",
"d.[ _ _ _ _ _ _ j % F 9._ _ _ _ _ _ ) a $ ..,.) _ _ _ _ _ L 8 ; t.[ ) _ _ _ _ _ j % V 9._ _ _ _ _ _ ) a X ..,.) _ _ _ _ _ L e   ",
"( x l l l l j j a % r L l l l l l j j y X k L j l l l l j h w @ L x l l l l j j a % r L l l l l l j j y X k L j l l j l j h e   ",
"% % % % & % % % & X . % % % % & % % & % . X & % % & % % % & %   % & % % & % % % & X . % % % % & % % & % . X & % % & % % % & %   ",
"M M M = . n V B s s M M M i X . B V M s M M M M : . ; V B M s M M M M = . n V B M s M M M i X . B V M s M M M M r . ; V B M s m ",
"7.7.<.g X ;.x.q.7.7.7.7.7.| w : h.h.7.7.7.7.7.7.L % I b.i.7.7.7.7.7.<.g X ;.x.y.7.7.7.7.7.| w : h.h.7.7.7.7.7.7.L % S b.i.7.7.<.",
"` _ _ p $ =.4._ _ _ _ _ ` L w ; p.| _ _ _ _ _ ` l % U p.` _ ` ` _ _ _ p $ =.7._ _ ` ` ` ` L w ; p.| _ _ _ _ _ ` l % S p.` _ ` _ ",
"L L T p # ~ | L L L L L R J w 4  ._ L L L L L R h % M X.R L L L L L T p # ~ | L L L L L R J w 4  ._ R L R L L R h % M X.R R L L ",
"e e e w . * e e e e e e e e & . e e e e e e e e e % @ e e e e e e e e w . * e e e e e e e e & . e e e e e e e e e % @ e e e e e ",
"% = 1 1 < < 1 1 O o # = = 1 1 < 1 1 1 o o $ = = 1 < < 1 1 1 o o @ = 1 1 < < 1 1 O o # = = 1 1 < 1 1 1 o o $ = = 1 < < 1 1 < o   ",
"p.y.5.=.=.=.=.=.H + B y.r.=.=.=.=.=.&.a X { p.5.=.=.=.=.=.] 0 ; e.y.5.=.=.=.=.=.H + B y.r.=.=.=.=.=.&.a X { p.5.=.=.=.=.=.] w   ",
"b.<.| | | | | | z % U j. .| | | | | | g X ;.i.| | | | | | _ 8 ; g.<.| | | | | | z % U j. .| | | | | | g X ;.i.| | | | | | _ 7   ",
"p.[ ) ) ) ) ) _ j % V 7.) ) ) ) ) ) ) a O } +.) ) ) ) ) _ L 8 ; 7.[ ) ) ) ) ) _ j % V 7.) ) ) ) ) ) ) a X } +.) ) ) ) ) _ L e   ",
"L h g h h g g g a % r x g g h h g g g t X d j g h h h g g g w @ l j g h h h g g a % r x g g h h g g g 9 X d j g h h h g g g w   ",
"+ % @ % % @ @ % % . o + + @ % % @ + % %   . % @ @ % % @ % % X   X + @ % % @ @ % % . o + + @ % % @ % % %   . + @ @ % % @ % % X   ",
"I I U : o B W Y I I I I I V % $ Y ! I I I I I I i X : ! ! I I I I I U : o B W Y I I I I I V % $ Y ! I I I I I I i X : ! ! I I U ",
"<.<.,.g X ;.k.7.<.<.<.<.<.| w : h.p.7.<.<.<.<.<.L % I b.q.<.<.<.<.<.,.g X ;.k.7.<.<.<.<.<.| w : h.p.7.<.<.<.<.<.L % I b.q.<.<.<.",
"_ _ ) p $ O.<._ _ _ _ _ _ K w ; y.| _ _ _ _ _ _ k % S i._ _ _ _ _ _ ) p $ *.<._ _ _ _ _ _ K w ; y.| _ _ _ _ _ _ k % F i._ _ _ ) ",
"K K K p # T ` K L L L L K l w 4 [ L K K L K K K f % m | L K L L K K K p $ T ` K L L K L K l w 4 [ L K L L K K K f % m | L K L K ",
"w w w & . % w w w w w w w w & o * w w w w w w w w @ $ w w w w w w w w & . % w w w w w w w w & o * w w w w w w w w @ O w w w w w ",
": : 3 3 3 3 3 3 1 o # : : 3 3 3 3 3 3 O   = : 3 3 3 3 3 3 2 o o ; : 3 3 3 3 3 3 1 o # : : 3 3 3 3 3 3 O   = : 3 3 3 3 3 3 2 o   ",
"j.f.r.5.5.5.5.5.R + V l.p.5.5.5.5.5.5.g X ..h.t.5.5.5.5.5...q ; y.f.r.5.5.5.5.5.R + V h.p.5.5.5.5.5.5.g X ..h.t.5.5.5.5.5...q . ",
"v.+.[ [ [ [ [ [ z % U f.| [ [ [ [ [ ` a X ;.9.[ [ [ [ [ [ / 8 ; f.+.[ [ [ [ [ [ z % U f.| [ [ [ [ [ ` a X ;.9.[ [ [ [ ` [ / 8   ",
"0.` ) ) ) ) ) ) j % B 7.) ) ) ) ) ) E a X }  .) ) ) ) ) ) K 8 ; 3.` ) ) ) ) ) ) j % B 7.) ) ) ) ) ) E a X }  .) ) ) ) ) ) K e   ",
"j a a a a a a a 9 % - g a a a a a a a 9 X u g a a a a a a a w $ g a a a a a a a 9 % - g a a a a a a a 9 X u g a a a a a a a w   ",
"X X X X @ X X X X . o X X X @ @ X X X X   . X X X @ X X X X X   X X X X @ X X X X . o X X X @ @ X X X X   . X X X @ X X X X X   ",
"~ ~ E e . I *.{ E E ~ ~ ~ I % @ { %.' E E ~ ~ ~ f X n ..} ~ _ ~ ~ ~ E e . I *.{ E E ~ ~ ~ I % @ { %.' E E ~ ~ ~ f X n ..} ~ _ E ",
":.:.+.a X 5.h.<.:.:.:.:.:.[ w : h.y.,.:.:.:.:.:.K % I v.7.:.:.:.:.:.+.a X ;.h.<.:.:.:.:.:.[ w : h.y.,.:.:.:.:.:.L % I x.7.:.:.+.",
"_ _ ) p $ O.<._ _ _ _ _ _ K w 4 y.| _ _ _ _ _ _ k % F y._ _ _ _ _ _ ) p $ O.<._ _ _ _ _ _ K w 4 y.| _ _ _ _ _ _ k % F y._ _ _ ) ",
"x l l p $ D L l x x x x l k w $ ) K l x x x x J a % n _ x x x x x l l p $ D L l x x x x l k w $ ) K l x x x x J a = c _ x x x l ",
"& & & & o @ & & & & & & & & = o % & & & & & & & & O . & & & & & & & & & o @ & & & & & & & & = o % & & & & & & & & O . & & & & & ",
"s M v b b b b b 3 o $ M m b b b b b b =   : M m b b b b b c O o n M v b b b b b 3 o $ M m b b b b b b =   2 b b b b b b b c O   ",
"b.h.t.r.r.r.r.r.L + S v.s.r.r.r.r.r.5.g X =.x.y.r.r.r.r.r. .7 ; g.h.t.r.r.r.r.r./ % F v.s.r.r.r.r.r.5.g X ' t.r.r.r.r.r.r. .q . ",
"c.| ` ` ` ` ` ` j % U p.` ` ` ` ` ` _ a X =.7.` ` ` ` ` ` L 8 ; s.| ` ` ` ` ` ` j % U p.` ` ` ` ` ` _ a X } :.` ` ` ` ` ` L 8   ",
"7._ P P P P P E j % B ,.P P P P P P L a X ' | L P P P P E K 8 ; +._ P P P P P E j % B ,.P P P P P P L a X ' | R P P P P E K e   ",
"a y t t t t y 9 9 % = a y t t t t y 9 7 X w y t t t t t 9 9 0 O y y t t t t y 9 9 % = a y t t t t y 9 8 X w y t t t t t 9 9 0   ",
"$ $ $ . . $ @ $ @ . o $ $ @ . . $ @ $ X o . $ $ X . X $ $ @ X o $ $ $ . . $ @ $ @ . o $ $ @ . . $ @ $ @ o . $ $ X . X $ $ @ X   ",
"....} p X ~ r.+...........E & = -.e.O...........l X M e.5...........} p X ~ r.+...........E & = -.e.O...........l X M e.5.....} ",
" . .| a X ;.p.+. . . . . .` w : g.7. . . . . . .K % I k.,. . . . . .| a X ;.p.+. . . . . .` w : g.7. . . . . . .K % I k.,. . .| ",
"_ _ E p $ ..:._ _ _ _ _ _ K w 4 t.| _ _ _ _ _ ) k % F q._ _ _ _ _ _ E p $ ..:._ _ _ _ _ _ K w 4 t.| _ _ _ _ _ ) k % V q._ _ _ ) ",
"k k h e $ f K k k k k k k f w $ K l k k k k k k a = r L k k k k k k h e $ f K k k k k k k f w $ K l k k k k k k a = r L k k k h ",
"% % = = o O = = = = % % % = @   @ = = % = % % % = . o = = = = = % % = = o O = = = = = % % = O   @ = = % = % % % = . o = = = = = ",
"U U A Z Z Z Z Z c . 4 U S Z Z Z Z Z Z - o m I F Z Z Z Z Z C O # V S A Z Z Z Z Z c . 4 U S Z Z Z Z Z Z - o m I F Z Z Z Z Z C @   ",
"n.d.7.4.4.6.6.r./ % U b.i.7.4.6.6.6.3.g X ;.x.y.4.4.6.6.r.| 7 : l.d.7.4.4.6.6.r./ % U b.i.7.4.6.6.r.3.g X ;.x.y.4.4.6.6.r. .7 . ",
"k.| _ _ _ _ _ _ j % U i._ _ _ _ _ _ _ a O =.<._ _ _ _ _ _ L 8 ; p.| _ _ _ _ _ _ j % F i._ _ _ _ _ _ _ a X =.<._ _ _ _ _ _ L 8   ",
",.E L L L L L L h % M  .L L L L L L K p O E [ L L L L L L x w = ..E L L L L L L h % M  .L L L L L L K a O E [ L L L L L L x e   ",
"p t t t t t t t e = = y t t t t t t t e . w t t t t t t t t w . e t t t t t t t e = = y t t t t t t t e # w t t t t t t t t w   "
};