/* XPM */
static char *b4b855fdf7dd48e9b18c1974d5d338d6XPiJ9cDz8xqyh45T[] = {
/* columns rows colors chars-per-pixel */
"64 64 206 2 ",
"   c #577C7F",
".  c #686767",
"X  c #686867",
"o  c #686768",
"O  c #666A6A",
"+  c #696A6A",
"@  c #706F6F",
"#  c #68706F",
"$  c #706F70",
"%  c #627374",
"&  c #6C7272",
"*  c #6E7877",
"=  c #6F7D7A",
"-  c #747474",
";  c #787777",
":  c #747779",
">  c #737B7A",
",  c #7E7E7E",
"<  c #807F7F",
"1  c #73817E",
"2  c #7E817F",
"3  c #7E7F80",
"4  c #568486",
"5  c #54878A",
"6  c #5A888B",
"7  c #468D92",
"8  c #4F8F91",
"9  c #538E92",
"0  c #4D9496",
"q  c #4D9599",
"w  c #4D9A9D",
"e  c #539395",
"r  c #5C9295",
"t  c #519699",
"y  c #5E9699",
"u  c #539B9D",
"i  c #5B9A9D",
"p  c #688587",
"a  c #658C8E",
"s  c #748382",
"d  c #7C8282",
"f  c #798A88",
"g  c #7B8B8C",
"h  c #7D918D",
"j  c #638E91",
"k  c #649496",
"l  c #699395",
"z  c #649799",
"x  c #6A9698",
"c  c #629A9D",
"v  c #699A9C",
"b  c #749293",
"n  c #7B9395",
"m  c #759A9C",
"M  c #74A39C",
"N  c #4E9CA0",
"B  c #519DA1",
"V  c #5B9EA1",
"C  c #669EA2",
"Z  c #689EA2",
"A  c #52A3A6",
"S  c #5BA2A4",
"D  c #53A6AB",
"F  c #5FA6A9",
"G  c #54A9AE",
"H  c #5AACAE",
"J  c #56ACB1",
"K  c #58ADB1",
"L  c #5BB3B6",
"P  c #5BB5B8",
"I  c #5DB9BD",
"U  c #6BA2A5",
"Y  c #63A6A9",
"T  c #6CA6A9",
"R  c #63A9AD",
"E  c #75A0A1",
"W  c #73A5A9",
"Q  c #70A9AB",
"!  c #7AABAD",
"~  c #7FB3A9",
"^  c #65ACB0",
"/  c #74AEB1",
"(  c #7CAFB2",
")  c #6BB2B4",
"_  c #64B6BA",
"`  c #6AB5B9",
"'  c #6BBABD",
"]  c #74B6BA",
"[  c #79B4B8",
"{  c #75B9BC",
"}  c #7CC9BD",
"|  c #5FBEC1",
" . c #62BDC3",
".. c #6BBDC0",
"X. c #72BCC1",
"o. c #78BEC1",
"O. c #61C1C5",
"+. c #63C5CA",
"@. c #69C4CC",
"#. c #66CACE",
"$. c #6ACACF",
"%. c #76C7CB",
"&. c #67CDD3",
"*. c #69CDD4",
"=. c #77CFD0",
"-. c #6BD1D5",
";. c #6CD5D9",
":. c #6ED9DC",
">. c #6ED9DE",
",. c #73D2D4",
"<. c #75D3D8",
"1. c #7AD7D9",
"2. c #74DBDE",
"3. c #75DDE1",
"4. c #77DEE2",
"5. c #7BDEE2",
"6. c #7DE0E4",
"7. c #808080",
"8. c #828383",
"9. c #838788",
"0. c #848B8B",
"q. c #8A8A8A",
"w. c gray55",
"e. c #8E8E8E",
"r. c gray56",
"t. c #908F8F",
"y. c #84908D",
"u. c #88918F",
"i. c #8A8F90",
"p. c #859192",
"a. c #8D9192",
"s. c #89979A",
"d. c #859B9C",
"f. c #8C9B9E",
"g. c #909090",
"h. c #909191",
"j. c #919798",
"k. c #929A9B",
"l. c #9D9D9D",
"z. c #8FA29D",
"x. c #8E9FA2",
"c. c #959FA2",
"v. c #A09FA0",
"b. c #8CA3A5",
"n. c #83A7AB",
"m. c #88A5A8",
"M. c #8BA9AD",
"N. c #92A2A5",
"B. c #9DA3A3",
"V. c #92A6AA",
"C. c #94A9AE",
"Z. c #99A9AC",
"A. c #86B5AA",
"S. c #88BDAF",
"D. c #8EAEB3",
"F. c #95ACB2",
"G. c #8BB2B5",
"H. c #82B5B9",
"J. c #8AB3B9",
"K. c #83BABD",
"L. c #94B3B5",
"P. c #9CBBB4",
"I. c #94B6B8",
"U. c #A2A2A2",
"Y. c #ABB6B3",
"T. c #B1BCBA",
"R. c #8BC3B5",
"E. c #84C7BD",
"W. c #8DCCBD",
"Q. c #96C4BF",
"!. c #92CBBD",
"~. c #80BCC2",
"^. c #86C8C4",
"/. c #96C5C0",
"(. c #98CEC1",
"). c #88D3C7",
"_. c #8DDACB",
"`. c #92D4C4",
"'. c #94DCCB",
"]. c #98DBCA",
"[. c #86DDD5",
"{. c #8ADDD3",
"}. c #B7D3CE",
"|. c #BDDAD3",
" X c #96E1CF",
".X c #8EE1D4",
"XX c #86E2DC",
"oX c #96E4D3",
"OX c #99E6D4",
"+X c #9AE8D5",
"@X c #A6EADA",
"#X c #BBE4DB",
"$X c #BCF1EA",
"%X c #C2D9D4",
"&X c #CAE3DC",
"*X c #C5ECE4",
"=X c #D2EDE7",
"-X c #C5F4EB",
";X c #CCF7ED",
":X c #D5F2EB",
">X c #D9F6EF",
",X c #CEF8F2",
"<X c #D4FAF2",
"1X c #DDFDF6",
"2X c #E0FFF7",
"3X c #E0FFF8",
/* pixels */
"O.O.O.G 7 7 7 q D D D D D D D I >.>.>.;.*.&.&.-.>.>.>.*.G D D L &.&.&.-.2.2.2.;.J D D G L L L I &.&.&.#.J D D G L L L L L L L L ",
"O.O.O.G 7 7 7 q D D D D D D D I >.>.>.;.*.&.&.-.>.>.>.*.G D D L &.&.&.-.2.2.2.;.J D D G L L L I &.&.&.#.G D D G L L L L L L L L ",
"O.O.O.G 7 7 7 w D D D D D D D I >.>.>.;.&.&.&.-.>.>.>.-.G D D L &.&.&.-.4.4.4.;.J D D G L L L I &.*.*.#.J D D G L P L L L L L L ",
"L L L S 6 6 6 6 r r r y c c c U ) ) ) ) ] ] ] { o.o.o.] U Z Z T ] ] ] ] { { { ] c c c c c c c C R R R Y r r r r c c c C H L L L ",
"w w w j , , 3 , - - - ; , , 2 ; X X o - e.e.e.e.t.e.e.e.e.e.e.e.e.e.a.e.3 , 3 3 , , , , ; ; ; - X X X X X X X X - - ; > i D D D ",
"w w w j , , , , ; ; ; ; , , , ; X X o - e.e.e.e.e.e.e.e.e.e.e.e.e.e.e.q., , , , , , , , ; ; ; - X X X X X X X X - ; ; > i D D D ",
"w w w j , , , , ; ; ; , , , 7.; . . o - e.e.e.e.e.e.e.e.g.g.g.g.g.g.g.e.3 , , , , , , , ; ; ; - . o o o . . . X - ; ; > i D D D ",
"K J K z , , , , - - - ; , , , > p p p s e.e.e.e.q.q.q.q.9.9.9.9.9.9.9.7., , , , , , , , - - - - s f f s % % % % ; , ; ; V D D D ",
"2.2.4./ ; ; ; + o o o o X X . a &.&.&.{ a.e.e.q.7., 7., X X X X X X X X ; ; ; ; ; ; ; - X X . > `. XoX_.u 0 0 e s , , d V D D D ",
"4.4.4./ - ; ; $ o o X X X X . a *.*.*.X.a.e.e.q., < , , X X X X X X X X ; ; ; ; ; ; ; - X X o > '.oXOX_.u q q e s < , d V D D D ",
"4.4.4./ - ; ; - X o o X X X . a *.*.*.X.a.e.e.q.7., 7., X o o . . . . X ; ; ; ; ; ; ; - X X o > '.oXOX_.u q q e s < , d V D D D ",
"2.2.2./ , , , ; - - - + + + + l %.%.%.[ a.e.e.q., , , > 1 s s = % % % % d d d d , , > , + + + 1 `.'.].`.c r r r s , , d F K K K ",
"*.*.*./ e.e.e.e.e.e.e.9., , , p.F.F.F.V.a.e.g.9.X X X 1 `.'.'.E.e 0 0 y M.F.F.V.e.e.e.q., , , 9.C.L.L.C.a.a.a.e., ; ; > ' &.&.&.",
"&.&.&.[ e.e.e.e.e.e.e.q., , , i.F.F.F.V.a.e.g.7.X o o 1 '.OXOX).t q q i F.F.F.C.g.e.e.q.7., , 9.C.F.F.C.g.e.e.e., ; ; > ' &.&.&.",
"&.&.&.[ t.e.e.e.e.e.g.q., , , p.F.F.F.V.g.g.g.9.X X o 1 '.OX+X).q 0 0 i F.F.F.C.g.e.a.e.7., , 9.C.F.F.C.g.e.g.e., ; ; > ' *.&.&.",
"#.#.#./ e.q.q.q.q.q.e.9., , , 0.x.x.x.s.9.9.9., X X o > !.(.`.R.c i i v b.N.N.f.q.9.9.9.7., , 7.N.V.V.N.e.q.q.9., ; ; > ` +.+.+.",
"O.O.O.U < 7.7.7.7.7.7.< , , , > ; ; ; - X X X X o X . - e.a.a.f.F.F.F.b.7.7.7., ; ; ; ; , , , 7.e.e.e.e., ; ; ; , , , d V G G G ",
"O.O.O.U , , , , , , , , , , , , ; ; ; - X X X X X X X - e.e.e.j.F.F.F.N.7., , , ; ; ; ; , , , 7.e.e.e.q., ; ; ; , , , d V D D D ",
"O.O.O.U , , , , , , , , , , , , ; ; ; - o o o o o o o @ e.g.e.j.F.F.F.N.7., , , ; - - ; , , , 7.e.e.e.e., ; ; ; , , , d V D D D ",
"+.+.+.Q 7.7.7.7., , , , , , , , - - - ; d d d , > = = > 9.q.q.a.N.V.V.f.3 , , , 9.0.9.0.y.y.u.u.q.q.q.9.; - - ; , , , d S G G G ",
"5.5.5.K.e.e.e.q., , , , ; ; ; - X X o 0.=X:X:X*X'.'.'.R.& X X - d d 7.d ; ; ; 9.&X:X:X=X].'.'.!., ; ; ; X X X X ; ; ; > F L L L ",
"6.5.6.K.e.e.e.q., , , , ; ; ; - o o o u.1X1X2X;XOXOX+XW.O . o + , , , , ; ; ; 9.:X1X1X<X+XoXOX`.> ; ; - X o X X - ; ; > F P L L ",
"6.5.6.K.e.e.e.q., , , , ; ; ; @ o o o u.1X1X2X;XOXOX+XW.O . . + , , , , ; ; ; 9.:X2X2X<X+XoXOX`.> ; ; - X o o X - ; ; > F P L L ",
"2.2.2.H.e.e.e.q.7.7.7.7.7.7.7.d * * & d.;X,X,X$XoXoXoXE.% O O & 7.7.7.d ; ; ; 9.*X,X,X-X'._._.E.> ; ; ; + X X X ; ; ; > R I I I ",
"I I I v ; , ; , e.e.e.Y.=X=X=X#X`.`.`.).<.<.<.<.-.-.-.O.e 8 8 k V.V.V.x.d , , g =.<.<.$.S u u y d , , , , , , , , , , d ' #.#.#.",
"L L L z ; ; ; , g.g.e.T.2X1X3X-XOXOXOX{.*.*.*.*.*.*.*.+.w q q i F.F.F.N.7., , g @.*.*.+.u 0 q e d , , , , , , , , , 2 d ..&.&.&.",
"P L P z ; ; ; , g.g.e.T.1X1X2X-XOXoXOX{.*.*.*.*.*.*.*.+.t q 0 i F.F.F.V.7., , g @.*.*.+.u q q e d , , , , , , , , , , d ..&.&.&.",
"L L L k - ; ; , e.e.q.Y.>X>X>X*XoXoXoX{.*.&.&.&.&.&.*.O.u t t c M.V.C.x.d , , f @.&.&.O.u t t r d , , , 7.7.7.7.7.7.7.d ..&.&.&.",
"q q q 4 X X X O + + + 7.B.B.B.Z.I.I.I.L.C.Z.Z.C.G.G.J.G.M.M.M.d.: * * & + + + - s.d.d.d.m.M.M.m.d , , 7.q.e.e.e.l.l.l.l.' +.O.O.",
"7 7 7   o o o o X X o ; e.e.e.k.F.F.F.Z.U.U.U.B.F.F.F.F.F.F.F.f.X o o o X X o + e.t.e.g.C.F.F.V.7., , 7.e.e.e.g.U.U.U.B.' O.O.O.",
"7 7 7   . . o o X X o ; e.e.e.k.F.F.F.Z.U.U.U.B.F.F.F.F.F.F.F.f.X o o . . . o + q.e.e.j.C.F.F.V.7., , 7.e.e.e.g.U.U.U.B.' O.O.O.",
"q q q 4 & & & # O # O > g.a.a.k.C.C.C.Z.B.v.l.B.C.C.C.C.V.V.C.f.- - - - & & & - q.e.e.a.V.C.C.N.7., , 7.e.e.e.g.l.U.U.B.' O.O.O.",
"*.*.*.=.W.W.W.E.' ....[ V.V.V.N.j.j.j.a.9.9.9.7.d d d , - - & u.%X&X&X|.!.W.W.S.2 , , , 7.9.9.7.d , , , 7.7.7.9.g.g.g.a.` O.O.O.",
"4.4.4.XXOXOXOX[.*.*.*.%.F.F.F.N.a.a.e.q., , , , ; ; ; - X o o 0.1X3X3X<X+XOX+X`.> ; ; ; , , , , , , , , , , , 7.e.e.e.a.` O.O.O.",
"4.4.4.XXoXoXOX[.*.*.*.%.F.F.F.N.a.e.a.q., , , , ; ; ; - X o o 0.1X1X1X;XOXoXOX`., ; ; ; , , , , , , , , , < < 7.e.t.e.a.` O.O.O.",
"2.2.4.[.oXoXoX{.&.&.*.o.C.C.C.x.e.e.e.q., , , , ; ; ; - & # O p.:X<X<X-XoX'.oX`.1 - : ; d d d d 7.7.7.7.7.7.7.7.t.g.g.a.` O. . .",
"+.+.+.o.I.I.I.I.J.J.J.b.9.9.9.3 $ + + - , , , , ; ; - s R.W.W.).1.1.1.=.F S S S e 9 9 r b.V.V.N.e.e.e.e.l.l.l.l.l.B.l.c.R J J J ",
"O.O.O.{ F.F.F.F.F.F.F.f., , , ; o X o + , , , , ; ; - f '.oXOX.X*.*.*.O.q q q q q q q i D.F.F.C.g.e.e.g.B.U.U.U.U.U.U.B.Y D D D ",
"O.O.O.{ F.F.F.F.F.F.F.f.3 , , ; X X . + , , , , ; ; - f '.OXOX{.*.*.*.+.w q q q q q q i M.F.F.C.g.e.e.g.U.U.U.U.U.U.U.B.Y D D D ",
"O.O.O.{ C.C.C.C.C.C.F.f., , , ; o o o & , , , , ; ; - f '. XoX{.*.*.*.O.u t t t t t q i M.C.C.V.a.e.e.g.l.U.U.U.U.U.U.B.Y G G G ",
"#.#.#./ 0.0.0.9.d d d d , , , b ` ` _ U ; , : - + X X - z.N.N.M.J.J.J.J.n.n.n.n.n n n g > > > > - - - ; , 7.7.7.7.7.7.d %.<.<.<.",
"*.&.&.Q , , , , ; ; ; , , , , m *.-.-.` ; ; ; - X X o @ e.e.e.j.F.F.F.F.F.F.F.C.g.t.t.q.X o o o o o o X - ; ; - ; ; ; ; %.6.6.6.",
"*.&.&.Q , , , , ; ; ; , , , , m *.*.*.` ; ; ; - X X o - e.e.e.j.F.F.F.F.F.F.F.V.g.e.e.q.X X X X X X X X ; ; ; ; ; ; ; ; %.6.5.5.",
"*.&.&.Q , , , , ; ; ; , , , , m &.*.*.` : ; ; - X X X - e.e.e.j.F.F.F.F.F.F.F.V.a.e.e.q.+ X X X o o o X ; ; ; ; ; ; ; ; %.6.5.5.",
"P P P v , < , , , , , , , , , f m m m n 9.9.9.9.7.7.7.9.e.e.e.a.k.k.k.a.9.f f d ; ; - 1 A.S.S.~ 6 5 4 6 7.9.9.9.9.9.9.9.` O.O.O.",
"D D D k , , , , , , , , , , , , < < , 7.g.e.e.g.g.g.g.g.e.e.e.e.e.e.e.q.; - ; - X o o = '.+X+X_.u q q e a.t.e.e.e.e.e.a.R L L L ",
"D D D k , , , , , , , , , , , , < < < 9.g.t.e.t.e.e.e.g.e.e.e.e.e.e.e.q.; ; ; - X X . > '.OXOX).t q q e a.t.e.e.e.e.e.a.^ P L L ",
"D D D k , , , , , , , , , , , , , , , 7.e.t.e.e.e.e.e.e.e.e.e.e.a.a.a.q., ; , ; O X X = '.oXOX).u q q e p.e.e.e.e.e.e.a.^ P L L ",
"L L L z ; , ; , q.q.e.2 + + + + + + + ; 9.9.7.9.e.e.e.q., , , y.!.(.!.(.|.%X%X}.R.R.R.E.,.,.,.,. . . ._ y r r k a.e.e.a.^ P L L ",
"P L P z ; ; ; , e.e.g., o X X X X X X + , 3 7.9.e.e.e.q.; ; - h  XOXOX@X1X3X3X<X+X+XOX.X-.*.*.*.*.*.*.#.u q q e p.t.e.a.^ P L L ",
"L L P z - ; ; , e.e.g., X X X X X X X + , , 7.9.e.e.e.q.; ; - h  XOXoX@X1X1X1X<X+XOXOX.X-.*.*.*.*.*.*.#.u 0 q e p.t.e.a.^ P L L ",
"L L L z - ; ; , e.e.g., X X X X X X o + , < 7.9.e.e.e.q.; ; - h  XoXoX@X1X1X1X<X+XOXOX.X-.*.*.*.*.*.*.#.u q q e p.t.e.a.^ P L L ",
"N N N k 9.9.9.e.N.N.N.b.A.A.A.M 4 4 4   & - - ; , , , , , , , 0.P.P.P.P.K.K.K.K.=.=.=.=.K.K.K.K.K.K.K.H.n b b b 9.9.9.9.R P L L ",
"7 7 7 j e.e.e.k.F.F.F./.OXOX+X} q q q 5 o . o X ; ; ; ; , , , q.U.U.U.f.e 0 0 w #.*.*.$.D.F.F.F.F.F.F.C.g.t.g.e.7., , d R P L L ",
"7 7 7 j e.e.e.k.F.F.F.Q.oXoXOX} 0 q q 5 o X X X ; ; ; ; , , , q.U.U.U.f.e q 0 B #.*.*.$.D.F.F.F.F.F.F.C.g.e.e.e.7., , d R P L L ",
"7 7 7 j a.e.e.k.F.F.F.Q.oXoXOX} 0 q q 5 o X o X ; ; ; ; , , , q.U.U.U.x.e 0 0 B #.*.*.$.L.F.F.F.F.F.F.C.g.e.e.e.7., , d R P L L ",
"G G G z 7.7.d 7.0.0.0.b./././.G.b b b g , , , , 7.9.9.7., , , 7.e.e.e.e.b b b m [ ~.~.H.s.p.p.p.y.0.0.0.7.d d , , , , > S J J J ",
"O.O.O.Z - ; - - - - - 9.F.F.F.N.t.t.t.t.g.g.g.g.g.g.g.e.7., , , , , , 7.e.t.t.g.C.F.F.V.7., , , ; ; ; ; ; ; - - ; ; ; - V D D D ",
"O.O.O.Z ; ; ; ; ; ; ; 0.F.F.F.N.e.e.e.e.e.e.e.e.e.e.e.e.7., , , , , , 7.e.e.e.j.C.F.F.V.7., , , ; ; ; ; ; ; ; ; ; ; ; - i D D D ",
"O.O.O.Z - ; ; ; ; ; - 0.F.F.F.N.e.e.e.t.t.t.t.t.t.t.t.e.7.< < < < < < 7.e.t.t.g.C.F.F.V.7.< < , ; ; ; ; ; ; ; ; - - - - i D D D ",
"#.&.&.^ a a a a a a a x W W W W ! ! ! ! E E E E E E E m j a a a a a a l ! ! ! ( ~.^.^.[ x l l l a a a a a a a a x x x x _ |  . .",
">.>.>.+.D D D D D D D A w w w J &.&.&.+.P L L L L L P J N w w w w w w D &.&.&.*.>.>.>.-.J D D D D D D D D D D G I O.O.O.;.>.>.>.",
">.>.>.+.D D D D D D D A w w w J &.&.&.+.P L L L L L L K N w w w w w w D #.&.&.*.>.>.>.-.J D D D D D D D D D D G | O.O.O.;.>.>.>.",
">.>.>.O.D D D D D D D A w w w G $.$.*.+.L L L L L L L K w w w w w w w A #.$.$.*.;.>.>.-.G A D D D D D D D D D G _ O.O.O.-.>.>.>."
};
