/* XPM */
static char *_025798569574dc8d54a60667d0beecb7PGpIlj9lkUP7sMJ[] = {
/* columns rows colors chars-per-pixel */
"64 64 126 2 ",
"   c #5B291D",
".  c #5A291C",
"X  c #57271B",
"o  c #5D2A1E",
"O  c #5D291D",
"+  c #58281C",
"@  c #602D20",
"#  c #632F22",
"$  c #622F22",
"%  c #5A2A1D",
"&  c #622E21",
"*  c #5B2B1E",
"=  c #5E2C20",
"-  c #622F21",
";  c #622E22",
":  c #5A2A1E",
">  c #5E2D20",
",  c #5F2C20",
"<  c #5D2C1E",
"1  c #5F2C1F",
"2  c #5E2C1F",
"3  c #58291D",
"4  c #5B2B1F",
"5  c #56281C",
"6  c #5D2C1F",
"7  c #5C2C1F",
"8  c #5C2B1F",
"9  c #57291D",
"0  c #59291D",
"q  c #5E2B1E",
"w  c #5E2A1E",
"e  c #55271B",
"r  c #633022",
"t  c #633023",
"y  c #643023",
"u  c #5D2C20",
"i  c #602E21",
"p  c #612E21",
"a  c #57281C",
"s  c #5B2A1E",
"d  c #55261B",
"f  c #53251A",
"g  c #5F2E21",
"h  c #643123",
"j  c #612D20",
"k  c #5D2D1F",
"l  c #623022",
"z  c #602F21",
"x  c #612F22",
"c  c #5F2E20",
"v  c #5C2B1E",
"b  c #5E2B1F",
"n  c #59281C",
"m  c #5C291D",
"M  c #5A2B1E",
"N  c #602E20",
"B  c #5F2D20",
"V  c #592A1E",
"C  c #51251A",
"Z  c #592A1D",
"A  c #56291C",
"S  c #5D2B1F",
"D  c #57271C",
"F  c #5C2A1E",
"G  c #56271B",
"H  c #612E20",
"J  c #612F21",
"K  c #5F2B1F",
"L  c #5A291D",
"P  c #55281B",
"I  c #5F2D21",
"U  c #582A1E",
"Y  c #602D21",
"T  c #57281D",
"R  c #5B2A1D",
"E  c #5A2B1F",
"W  c #632F23",
"Q  c #57291C",
"!  c #58291C",
"~  c #5D2D20",
"^  c #59291C",
"/  c #5C2A1D",
"(  c #5B291E",
")  c #54261A",
"_  c #5D2B1E",
"`  c #55271C",
"'  c #5B2C1F",
"]  c #56281D",
"[  c #653123",
"{  c #653124",
"}  c #643022",
"|  c #582A1D",
" . c #5E2E21",
".. c #5C2D1F",
"X. c #59281D",
"o. c #56261B",
"O. c #54271B",
"+. c #5E2D21",
"@. c #642F22",
"#. c #5C2C1E",
"$. c #5E2D1F",
"%. c #54261B",
"&. c #52261A",
"*. c #602C20",
"=. c #5A281C",
"-. c #602C1F",
";. c #58281D",
":. c #512419",
">. c #52251A",
",. c #5F2F21",
"<. c #612D21",
"1. c #56271C",
"2. c #592B1E",
"3. c #5C291E",
"4. c #54251A",
"5. c #53261A",
"6. c #512519",
"7. c #5A281D",
"8. c #502419",
"9. c #55281C",
"0. c #602F22",
"q. c #5E2E20",
"w. c #5C2C20",
"e. c #55261A",
"r. c #58281B",
"t. c white",
/* pixels */
"  . X o o o o o O O + @ # # # # # # # # # # # # # # $ % & # # # * = - - - - - - $ - - ; @ : # # # # # # # # # > , < o 1 1 1 @ 2 ",
"3 3 3 4 5 4 6 7 8 8 9 @ # # # # # # # # # # # # # # $ 0 & # # # *   q q q q w w q w w w   3 # # # # # # # # # * 3 7 : e 4 4 * 0 ",
"r t y t u $ # # # r i p # # # # # # # # # # # # # # - 0 & # # # * a s 0 e 5 a a a 5 d f 3 3 # # # # # # # # # * g y $ 4 y h y y ",
"# # # # 2 & # # # # @ 1 & & & & & & & & & & & & p p j + p # # # 7 p r $ k $ $ l l $ z 9 x u # # # # # # # # # 4 c # $ 7 # # # # ",
"# # # # v q 1 2 b 2 n   w w w o o o o o o o o o o o m e p # # p 3 p # $ i # # # # # $ M i 6 # # # # # # # # # 4 N # $ 8 # # # # ",
"# # # # % M > > > B 6 g p i i B 3 e V : * 4 4 4 * : a C p # # 7 Z p # # x # # # # # $ : 7 8 # # # # # # # # # * @ # $ 7 # # # # ",
"# # # # 8 $ r r r r r r r # # y u 7 y t r y t t t t r A i i 4 S 7 p # # $ # # # # # $ 3 v 6 $ # # # # # # # # s N # $ 7 # # # # ",
"# # # # v p # # # # # # # # # # > > # # # # # # # # # 5 s 2 2 - v p # # $ # # # # # $ 0 s D o q q q q q o o F G i # $ 7 # # # # ",
"# # & H v & # # # # # # # # # # B > # # # # # # # # # a @ # J # * @ - p H # # # # # $ a : 9 Z : : * * s Z 3 5 C i # $ 8 $ # # # ",
"p j K 1 L @ & & & & & & & & & & 6 > # # # # # # # # # P * I 8 6 5 0 s a M # # # # # $ V l t t r r y t r r t t U Y # $ s @ p p p ",
"s s s s T : S 6 2 S R 0 % R % % G 6 # # # # # # # # # 3 > x J J z z z 7 E W # # # # $ M - # # # # # # # # # # : Y # $ Q s v ! 0 ",
"$ $ $ $ # # $ # # $ i g $ $ $ $ 6 2 # # # # # # # # # : - # # # # # # $ > # # # # # $ : $ # # # # # # # # # # Z Y # $ 4 $ # > i ",
"# # # # # # # # # # $ $ # # # # > S & & & & & & & & p L $ # # # # # # J ~ W # # # # $ : $ # # # # # # # # # # % Y # $ 7 # # g p ",
"# # # # # # # # # # p 6 1 1 1 2 ^ G / / / / / (   L n ) 8 = 2 2 S _ v 0 M r # # # # $ : $ # # # # # # # # # # : Y # $ u # # N p ",
"# # # # # # # # # # p Z ~ ~ u 7 4 E 4 7 ~ V ` 4 4 7 7 ' ~ > > = u 8 4 ] V # # # # # $ : - # # # # # # # # # # Z @ # # u # # N p ",
"# # # # # # # # # # p > [ h h h [ { [ h h J > y } } } } r r # # r } } $ u # # # # # $ : - # # # # # # # # # # Z B # $ 7 # # B p ",
"# # # # # # # # # # p ~ # # # # # # # # # i > # # # # # # # # # # # # p 6 # # # # # $ s - # # # # # # # # # # Z 6 & @ s & & 6 p ",
"R R F F F S 2 2 2 2 s 4 r # # # # # # # # i > # # # # # # # # # # # # p 7 # # # # # $ * - # # # # # # # # # # ! X m n f + + f + ",
"6 ~ > g V u x > $ $ g ~ # # # # # # # # # > 2 # # # # # # # # # # # # p 8 # # # # # $ * - # # # # # # # # # # | ' i  .~ ~ ~ 7 ..",
"[ [ h y x J $ i # # # i # # # # # # # # # s v # # # # # # # # # # # # p % p & & H H @ % - # # # # # # # # # # M x h h h h h h h ",
"# # # # i p p i # # $ g # # # # # # # # # s f a + ^ 0 L L L 0 X.0 + + G f   /   L n o.e - # # # # # # # # # # * p # # # # # # # ",
"# # # # i p B p # # & 6 # # # # # # # # # v O.~ ~ 7 6 ~ > > O.U +.> +.+.g i z i g +.4 a - # # # # # # # # # # 4 i # # # # # # # ",
"# # # # B 0 % F b _ R : # # # # # # # # # 8 * } } @.# # # @.M g y @.@.@.# # # # # @.r #.- # # # # # # # # # # 4 i # # # # # # # ",
"# # # # 2 : g B B * n 0 # # # # # # # # # v s # # # # # # # * I # # # # # # # # # # # * $ # # # # # # # # # # * i # # # # # # # ",
"# # # # $.B @.# # # S 0 # # # # # # # # # : s # # # # # # # * I # # # # # # # # # # # s p & - - - - & & & & & L i # # # # # # # ",
"# # # # 2 = # # # # J * # # # # # # # # # : * # # # # # # # * B # # # # # # # # # # # ! L / F / /         L n %.p # # # # # # # ",
"# # # # 2 , # # # # - * - # # # # # # # # B _ # # # # # # # s B # # # # # # # # # # # Q 4 > > 7 M Q &.M 4 4 M 5 p # # # # # # # ",
"# # # # 2 = # # # # p 0 *.j j j j j j @ @ o =.1 -.-.-.-.-.-.^ B # # # # # # # # # # $ M $ y y } r r 6 # # # } 6 p # # # # # # # ",
"; & & & v 2 # # - - @ e S b b s D X.;.+ + d :.G G G G G G D >.B # # # # # # # # # # $ 4 $ # # # # # = ; # # # v @ $ - ; ; ; ; ; ",
"        o.n b q w w   3 r # r u E x z i i i i z i ,.g g i x E @ # # # # # # # # # # $ 4 - # # # # # s F _ _ o d L F F F F F F R ",
"T O.3 3 5 Q % 0 3 a ) Q # # # B > @.# # # # # r r r r # # r > Y # # # # # # # # # # $ 8 & # # # # # Z 4 6 > > k > c : ` 8 7 3 O.",
"# > r r r # # # # $ J 6 # # # B = # # # # # # # # # # # # # > Y # # # # # # # # # # $ 8 $ # # # # # 7 # @.r # } r } p 7 } r N B ",
"2 * @ @ j j H p p p @ v j <.j s 6 # # # # # # # # # # # # # $.Y # # # # # # # # # # $ v $ # # # # # u $ # # # # # # i 7 # p 6 s ",
"s V * 8 8 S v 1.% R % ;.L % % >.8 # # # # # # # # # # # # # 6 @ # # # # # # # # # # $ * $ # # # # # > $ # # # # # # i 7 # p 8 T ",
"y t t t t y l 2.$ $ $ $ $ r r 3 8 # # # # # # # # # # # # # 6 , # ; ; ; ; ; ; ; & - & % p # # # # - 6 $ # # # # # # N 7 # p 6 p ",
"# # # # # # - 7 # # # # # # # 8 8 # # # # # # # # # # # # # v + o o o F o F F 3.    =.4.3.o o _ _ o L # # # # # # # N 7 # # 8 I ",
"# # # # # # - 8 # # # # # # # 8 6 # # # # # # # # # # # # # v 9 : 6 7 * 5.5 : M M : : V ' 6 6 7 * Z Q # # # # # # # N 7 # # i i ",
"# # # # # # - 8 # # # # # # # 6 6 # # # # # # # # # # # # # 2 i x r r } V g y } } y y y } } } r r r +.# # # # # # # N 7 # # @ i ",
"# # # # # # - v # # # # # # # 6 S # # # # # # # # # # # & @ S > $ # # # 8 B # # # # # # # # # # # # g # # # # # # # i 7 # # B : ",
"# # # # # # p 0 @ j j j j @ @   F <.& & & & & & & & p j -.K F p # # # # 8 Y # # # # # # # # # # # # 7 p # # # # # # N v # # b : ",
";.;.0 * s s 0 6.D + G D + + + 5.e         F   n =.=.n L 7.n )   b b b b + Y # # # # # # # # # # # # s > # # # # # # N a F s d 8.",
"u 4 9 i * u I B g g 9.7 i i i I g i i i 0.x M | q.> > > ~ w.' u B B i i Q B # # # # # # # # # # # # v B # # # # # # p V > ~ 7 ' ",
"# r g # 7 & # # # # 7 i # # # # # # # # r r i i y y } } } @.} r # # # } 6 @ # # # # # # # # # # # # * B # # # # # # p i r # # # ",
"# $ g $ 6 # # # # # 8 i # # # # # # # # # # & p # # # # # # # # # # # # 6 i # # # # # # # # # # # # s = # # # # # # p g # # # # ",
"# $ > i 6 # # # # # 8 i # # # # # # # # # # $ $ # # # # # # # # # # # # 6 i # # # # # # # # # # # # % 2 # # # # # # p B # # # # ",
"# $ u 7 4 - # # # # * N # # # # # # # # # # - - # # # # # # # # # # # # 6 i # # # # # # # # # # # # Z B # # # # # # H B # # # # ",
"# $ s B i 6 & ; & p L @ # # # # # # # # # # - - # # # # # # # # # # # # 6 i # # # # # # # # # # # # * 1 j j j j j @ S 6 # # # # ",
"# $ 0   S L L       e.@ # # # # # # # # # # p p # # # # # # # # # # # # 6 p # # # # # # # # # # # # Z : = B @ B 8 v e * # # # # ",
"# $ e V J i 8 5.4 7 5., # # # # # - - $ ; & 1 1 # # # # # # # # # # j p v i # # # # # # # # # # # # > $ # # # # i $ > 7 # # # # ",
"# $ u r # # # > # } 9 L o o o o o o o o o o n L @ @ @ @ @ @ @ @ @ @ w 1 ^ Y # # # # # # # # # # # # > $ # # # # B > c 6 # # # # ",
"# # B # # # # i $ # 5 3 > $.6 7 8 4 a a > 2 4 6 i J i 5 6 B B B B B B u e B # # # # # # # # # # # # u ; # # # # - 6 Z v # # # # ",
"# # B # # # # > $ # 9  .} y y r r # J > # # # # r r # M $ # # # # # r } u @ # # # # # # # # # # # # 8 & # # # # # # 6 8 # # # # ",
"# $ s # # # # 8 $ # 3 I # # # # # # $ i # # # # # # # ~ $ # # # # # # # 6 1 & & & & & & & & & & & & % @ & & & & & - > 8 # # # # ",
"$ % >.S 2 2 v %.S 1 e > # # # # # # & i # # # # # # # B $ # # # # # # # v X     m F o / m           f D     /       X : # # # # ",
"s s 3 4 7 4 M U : Z &.= # # # # # # & @ # # # # # # # B $ # # # # # # # 8 9 7 u > > > u M 5.M 7 7 7 4 ' 7 u ~ w.4 5 A 5 * = p $ ",
"2 - $ } } y y y y y 6 B # # # # # # & b j j j @ @ @ -.2 # # # # # # # # 7 B } # # # # # # M # } } } } } # # # r } c > 7 - B > $.",
"# # x # # # # # # # 6 = # # # # # # p G n 0 L L L L 0 ;.$ # # # # # # # 6 B # # # # # # # 4 $ # # # # # # # # # # B B 7 # # # $ ",
"# - N # # # # # # # 8 2 # # # # # # @ s i N i p J x p : & # # # # # # # 6 Y # # # # # # $ 4 $ # # # # # # # # # # B $.* # # # # ",
"Z 9 * # # # # # # # v   -.1 1 1 1 K / F & & & & & p <.+ F b b b b b q _ r.v p p p p @ *.b 0 $ # # # # # # # # # # $.3 e Z Z Z Z ",
"J i 6 # # # # # # # * a v * s : : : 3 9 s : : % % : s C T Z 3 a 5.0 4 : | * 2 2 = 6 8 8 : 5 $ # # # # # # # # # # B I J p p p p ",
"# & k # # # # # # # 6 g r r t t t t t t t t t l l t l M l t r r 4 p y r r # # # # # # # $ M - # # # # # # # # # # B i # # # # # ",
"# p k # # # # # # # 6 i # # # # # # # # # # # # # # # 7 $ # # # 8 i # # # # # # # # # # $ * - # # # # # # # # # # B B # # # # # ",
"# p 6 # # # # # # # 6 c # # # # # # # # # # # # # # # 8 $ # # # 4 Y # # # # # # # # # # $ * $ # # # # # # # # # # B i # # # # # ",
"# p 6 # # # # # # # S @ # # # # # # # # # # # # # # # * $ # # # * Y # # # # # # # # # # $ * - # # # # # # # # # # $.B # # # # # "
};
