/* XPM */
static char *a3d2da531a364270ef32147c5df4bb0bRNExq0AwsNiidZdH[] = {
/* columns rows colors chars-per-pixel */
"64 64 45 1 ",
"  c #9D8767",
". c #9B8769",
"X c #9E896A",
"o c #9E8D73",
"O c #A28D6D",
"+ c #A18F72",
"@ c #A59274",
"# c #AB9574",
"$ c #AE9876",
"% c #A6957A",
"& c #AA9679",
"* c #AC987A",
"= c #B19A77",
"- c #B19B78",
"; c #B09B7A",
": c #B39D7B",
"> c #B49E7A",
", c #B39D7C",
"< c #B79F7C",
"1 c #B49E7F",
"2 c #B7A07B",
"3 c #B7A17C",
"4 c #B7A17F",
"5 c #B8A27F",
"6 c #B9A37F",
"7 c #B49F80",
"8 c #B6A182",
"9 c #B7A483",
"0 c #B7A384",
"q c #B7A484",
"w c #B8A383",
"e c #BAA480",
"r c #BAA481",
"t c #BBA582",
"y c #B8A384",
"u c #BAA585",
"i c #BEA985",
"p c #B9A788",
"a c #BAA789",
"s c #BCA788",
"d c #BEA989",
"f c #C0AA86",
"g c #C1AB8A",
"h c #C2AE90",
"j c #C5B191",
/* pixels */
"&************&&&&&&&&&&&##&&&&###@@@@@@@@@@##@@%&&&&&%%%%%%&%%%%",
"@@@@@@@@@@@@@@@@@@@@@@@@@@@@@@++++++OX++o++++++++++++++++oo+oo+o",
"8ww888888w8888888888884484444444111,,;11444144888888888888088880",
"8yy8ww88ww84884444w54444444444441111::111114444488w88yw0ququ8888",
"8w88444444444444444444444444111,1111>>1111>1444448www8w88yuuuw88",
"88w4444444444444444441>>111111,>1>:::::>1>>>1144444w888888uuuqq8",
"884444444444144442121>>>2>1411:::>:::::>1>>>11144448888888yuuuu0",
"8844444424441111>>>>>>>>>>1>>1>>>>>>::>11>>>111444888w888888u9q0",
"4444441444444>>>>>>>>>>>>>11>>::>>>>>>111>1>1111188888888888q00q",
"wrwrr5555ww5554544445454455444144444445ww555wwwrruuuuuuuuuuuaaaa",
"71111>>:>441>>:>>>>>>>>>1111,::111411111441111444888888888880088",
";;$$=====================:::;=======$====;$$$$$=;;::::;111:::,,,",
"84544445224>2>>1144554555rwww44555542222444442>455ww5w5www4448w8",
"#########################################################@@#@###",
"XXXXXXXXXXX.     XXXXXX XXXXXXXXXXXXX.   XX...X..XXXXXX....X....",
"111,::::::::;:::::::::::;:::>1>:::::;::::::::::::::>>1111,111177",
"441>>>>>>::>>>>>>>>>>>>>>>>>>>>>>>>>>>>>>>:>>>>>>>24444444417788",
"111>>>>>>>>>>>>>>>>>>>>>>>>>>>>>>>>>>>>>>>>>>>>>2222444444111178",
"441>>>>>>>>>>>>>>41>>>>>>>>>>;>>>>>>>>>>>>>>>2>22224444444111,,7",
"44>>>>>>>>>>>>>>141>>>>>>>>>>>>>>>>>44441>>>>>>444444444444111,,",
"44>>>>>>>>>>>>44554>>>>>>>>>>>>>>>>>44ww44411125444444442444411,",
"444>>>>>>>>1>45455424424454424>>2>1145ww4445555554ww5ww44444441,",
"rrrrw555555wrrrrrrrrrrrrrrrrrrrrrrrrrrrrrrrrrrrrrriiiiiiurrrrrww",
"88w8www55445wwwwrwrwwwwwwrrwwwwr55rwrrwrrwyurruuruiuuuuuuwrr8888",
";;;*;;;=:;=;>>1>44444544444222>2>>2>1>>>>>44>>>1454444444111::::",
"urwwwww55rrwrriiiiiiiiiiirrrrrrrrrrrrrrrrrrrrrrrrrrrrrrrrrrww444",
"***##$#$$#$$$;;;;;;=::;::;;;;;;===$$$##########################@",
"XXXXXXXXX..  XXXXOXOOOOOOOOOOOOOOOXXXXXXXXOOXXXXXXXXXXXXXXX..XX.",
"444111>1>>>>>>>1>>>>422>222211114411>>11444444444455ww5444448888",
"4444514442>24555554455555555555455555555555555555rrrrrrr5555wrw8",
"5554444544555555555555555555555445425555555r555rrrrrrrrrrrwwww88",
"w55554442555555555555555555555554444455555555555rrrrrrrrrrwwww88",
"w55544455555555555555555r5555555545555555555555rrrrrrrrrrrwwwww8",
"r55555555555wrrrrr5rrrrrrrrwrw55455555555555555rrrrriirrrrrwwwww",
"rr55555555rrrrrrrrrrrrrrrrrrrr555555555r55555rrrrrrriiiirrrrwyyu",
"iiiirrriiiiiffffffiiffffffffiiirrrrrrrrriirrriiiiigggggggsssssss",
"sssssiiissggfgggggggggggggggfgfiiiiiiiiiiiiiiiiigggggggggsssssss",
"uyw54wwwrwrrrrrrrrriiiiiiiiiiiirrrrrrr555555545555rrrrrrurrrrrrw",
"sgiiiiiffiiffggffgffffffgggggggffffffiirrrrrrrrriffiiifiiiiiiiiu",
"8841111111144444444444444444441:>1>>:;:;;;;;;===;;::;:::;;**$###",
"++OOOOOOOOOOO++OOOOOOOOOOOOOOOOOOOOOOOOOOOOOOXXOXOOOOOOOOOOXXXXX",
"urwwwwww5wwrrrrrrrrrrrrrwwrrrrrrw555www55ww5555wwwrrrrrrrrwrwwy8",
"iirrrrrrrrrrrrrrrrrrrrrrrrrrrrrrrrrrrrrrrrrrrrrrrriiiiiirriiiuuu",
"iirrrrrrrrrrrrrrrrrrrrr5rr5r5r55rrrrrrrrrrrrrrrrrirrriiirrrrrruu",
"iirrrrrrrrrrrrrrr5rrrr5r55555555r555rrrrrrrrrrrrrrrrrrrrrrrrrrrr",
"iirrrrrrrrrrrrrrrr55rr55r55555rrrrrrrr5rrrrrrrrrrrrrrrrrrrrrrrrr",
"iiiirirrrrrrriirrrrr5rrrrrrrrrrrrrwrrrrrrrrrrrrrrrrrrrrrrrrurrrr",
"siiiiiiiiirrrrrrrrrrrrrrrrrrrrrrrrrrrrrrrrrrrrrrrrrriirrrrirrrru",
"ggggggggggffggggffffiiiiiiifffiifiiiiifffiiiifiiiiiiiiggsgssiiis",
"ggggggggggggggggggggffgfiffgffffffffffffffffffiiiiiiiissgssiiiuu",
"sirrrrwrr55w55555555555555555555555555555555544554455445544555w4",
"gggiiiiirrrrrrrrrr55w55rrr55rrrrrrrrrrrrrrrrrrrrrrrrrrrrrrrrrrir",
"8y841111>:>:::::;==;=$==========;;;;;;========$$$#$#######$$$###",
"XOOXOOXXOOXXXXXXX           XXXOOOOOXXOXXXOX XXXXXXXXXXXXXXXXXX.",
"yrrrwrrr5555444444444>4444444445545555554444444444444544ww544w88",
"siiirrrrrrrrrrr55555r55rrrrrrrrr55rrrr5rrrrr55wr5555rrrrrrrrrrrw",
"siiiirrrrrrrrrrrrwr55555rrrrrrrr5rrrrrrrrrrrrrww55555rrrrrrrwrrr",
"ssiiirrrrrrrrrr555r5rrrrrrrrrrrrrrrrrrrrrrrr555555555wrrwrrrwrwr",
"ssiiiirrrrrrrrr5rrrr5rrrr5rrrrrrrrrrrrrrrrrrr55555555rrrrrrrrruu",
"gsiiiirrrrrrrrrrr55555rrrrrrrrrrrrrrrrrrrrrrrwwwwr555555wrrruuuu",
"ggsssiiiiirrrrrrrrrrrrriiirrrrrrrirrrrrrrrrrrrrrww555w555rrussia",
"hggggggggggggssiifsssiigsssissggsgggsgssiiiiiiiiiiiiiiiiiiissssa",
"jjjjjjjggggggggggggggggggggggggggggggggggggggggggiiiiissggggsssu",
"dggggggsiiiirrrrrrrww5ww55wwwwrwrrrrrrrr5555544444444488ruuuy888"
};