/* XPM */
static char *_9c9b8987ffb4bb29a9412d29edb427fnNlmjMg4xkxAjhvD[] = {
/* columns rows colors chars-per-pixel */
"64 64 225 2 ",
"   c #5C5C5C",
".  c #645F55",
"X  c #605D59",
"o  c #6D634F",
"O  c #7E6A43",
"+  c #666055",
"@  c #676359",
"#  c #706652",
"$  c #716A5D",
"%  c #7C715E",
"&  c #656565",
"*  c #686764",
"=  c #6C6A65",
"-  c #676768",
";  c #676869",
":  c #6A6A69",
">  c #716C63",
",  c #76736C",
"<  c #7A746A",
"1  c #6F6F70",
"2  c #757575",
"3  c #797672",
"4  c #7A7975",
"5  c #777778",
"6  c #7E7E7E",
"7  c #95712F",
"8  c #886D3B",
"9  c #896E3A",
"0  c #9E6D32",
"q  c #8E7038",
"w  c #947232",
"e  c #9A7532",
"r  c #9E7A34",
"t  c #94753B",
"y  c #987A3C",
"u  c #A27A32",
"i  c #A77E34",
"p  c #836D44",
"a  c #826E4A",
"s  c #8D7548",
"d  c #917542",
"f  c #957944",
"g  c #887655",
"h  c #867B68",
"j  c #857C6A",
"k  c #827D72",
"l  c #807E7A",
"z  c #A78138",
"x  c #B88636",
"c  c #BD923B",
"v  c #C48F36",
"b  c #C9933A",
"n  c #CC963A",
"m  c #D09738",
"M  c #D59B3A",
"N  c #DC9E3A",
"B  c #D7A33E",
"V  c #DEA03A",
"C  c #E0A23A",
"Z  c #E1A83F",
"A  c #97864F",
"S  c #AB8647",
"D  c #B68E4E",
"F  c #B99445",
"G  c #A98A54",
"H  c #B58955",
"J  c #8C806A",
"K  c #98876A",
"L  c #9B8A69",
"P  c #878072",
"I  c #83817C",
"U  c #9C8E74",
"Y  c #A79269",
"T  c #BB9E66",
"R  c #A69774",
"E  c #B29C74",
"W  c #ABA56F",
"Q  c #BEA267",
"!  c #B8B26E",
"~  c #AEA872",
"^  c #B5A679",
"/  c #BBB77D",
"(  c #CA8D48",
")  c #C39544",
"_  c #C49845",
"`  c #CB9847",
"'  c #C69C4D",
"]  c #D29D43",
"[  c #D39D46",
"{  c #C89A51",
"}  c #C8A94C",
"|  c #D7A446",
" . c #D9A143",
".. c #C9A355",
"X. c #CAA55D",
"o. c #D1A354",
"O. c #D4B856",
"+. c #E3AA45",
"@. c #E5AC45",
"#. c #E8AE46",
"$. c #E5AE4A",
"%. c #E5B345",
"&. c #E7B14C",
"*. c #E9B24C",
"=. c #E1B94B",
"-. c #E9B554",
";. c #E7BA55",
":. c #EBBA56",
">. c #EBB959",
",. c #CCAA65",
"<. c #C1A269",
"1. c #CCAC6A",
"2. c #D2AD67",
"3. c #C9B66A",
"4. c #D2B968",
"5. c #C5AB75",
"6. c #CFB173",
"7. c #C4BB77",
"8. c #D1B173",
"9. c #D0B57B",
"0. c #E0B664",
"q. c #ECBE64",
"w. c #D3C55C",
"e. c #EBC652",
"r. c #EECD59",
"t. c #F1CD5E",
"y. c #EBD45C",
"u. c #F3D85D",
"i. c #D4CA6A",
"p. c #CBC379",
"a. c #D4CD73",
"s. c #D5C87A",
"d. c #DAD276",
"f. c #EDC364",
"g. c #ECCD66",
"h. c #EEC36D",
"j. c #F0CA6B",
"k. c #EADA61",
"l. c #F3DA68",
"z. c #EEC571",
"x. c #ECC977",
"c. c #EEC979",
"v. c #F1CA77",
"b. c #F1CA79",
"n. c #E5D976",
"m. c #F4D97A",
"M. c #EDE063",
"N. c #ECE16E",
"B. c #F6E364",
"V. c #F8EA66",
"C. c #F8E669",
"Z. c #FAEE69",
"A. c #FCF06A",
"S. c #EAE173",
"D. c #F6E377",
"F. c #F9EE73",
"G. c #F9EC7D",
"H. c #FBF173",
"J. c #FAF17E",
"K. c #7E7F80",
"L. c #7F8081",
"P. c #838382",
"I. c #898784",
"U. c #8C8A84",
"Y. c #8D8D8D",
"T. c #908D86",
"R. c #918F8C",
"E. c #9D9586",
"W. c #94908B",
"Q. c #9D998C",
"!. c #8E8E90",
"~. c #909090",
"^. c #929292",
"/. c #9A9895",
"(. c #9D9D9D",
"). c #A39A89",
"_. c #B09E80",
"`. c #A19C93",
"'. c #AFA087",
"]. c #ACA28E",
"[. c #B3A285",
"{. c #B5A587",
"}. c #BEAE8C",
"|. c #B9B589",
" X c #ABA192",
".X c #A6A49D",
"XX c #B0AD96",
"oX c #B8B594",
"OX c #9F9FA0",
"+X c #9FA0A2",
"@X c #A2A2A2",
"#X c #C5BD89",
"$X c #C1B396",
"%X c #D3BE93",
"&X c #CBC685",
"*X c #D3CC82",
"=X c #D9C58A",
"-X c #C7C491",
";X c #D4C698",
":X c #D4D096",
">X c #D9D397",
",X c #F1CE85",
"<X c #F2D688",
"1X c #F2D292",
"2X c #F9EB83",
"3X c #F8E98B",
"4X c #FCF184",
"5X c #FBF38A",
"6X c #F4E597",
"7X c #FEF596",
"8X c #FEF598",
"9X c #D8D5A5",
"0X c #F5DEAC",
"qX c #F8DDA9",
"wX c #F7E7A8",
"eX c #FCF5A3",
"rX c #FDF7AC",
"tX c #F4EFBA",
"yX c #FBF4B2",
"uX c #FDF8B1",
"iX c #FFFDB2",
"pX c #FBF7BD",
"aX c #FFFFBD",
"sX c #FEFAC3",
"dX c #FEF9CC",
/* pixels */
"9X9X9X9X:X:X:X:X:X:X:X:X*X*X*Xp.) b b ) ' ' ' ' X.X.X.X.X.X.X.X.' ' ' ' _ _ _ _ X.,.,.,.w.w.w.w.a.a.a.a.s.*X*Xs..._ _ _ { ......",
"dXdXdXsXuXuXuXuXuXuXuXrX8X8X8X3X*.#.#.*.:.>.>.>.h.h.h.h.h.h.h.h.>.>.>.>.-.*.*.-.h.b.b.b.C.A.A.A.4X5X5X5X8X8X8X7Xf.*.*.*.>.q.q.q.",
"dXdXdXsXuXuXuXuXuXuXuXrX8X8X8X3X*.#.#.#.:.>.:.>.h.h.h.h.h.h.h.h.>.:.>.:.-.*.*.-.h.b.b.v.C.A.A.A.4X5X5X5X8X8X8X8Xf.*.*.*.>.q.q.q.",
"sXsXsXtX9X9X9X9X9X>X>X>X>X>X>X*X| ] ] ] X.,.,.,.6.6.6.6.1.1.1.1.,.,.,.,.X.X.X.X.8.9.9.9.i.i.i.i.s.*X*X*X*X*X*X*X3.X.X.X.0.h.h.h.",
"uXyXuX9XI.P.P.P.6 4 4 6 P.P.P.P t e e t P I I I I I I I 1 = = = l I I I I I I I I I I I 1 = = = = = = = & @ @ @ 3 I I I 5.v.c.c.",
"yXyXuX9XP.6 6 6 2 2 2 2 6 6 K.k t w w t k 6 6 6 6 6 6 6 : ; ; : 6 6 6 6 6 6 6 6 6 6 6 6 : - : : : : : -         2 L.6 K.5.b.c.c.",
"uXuXuX9XP.6 6 6 2 2 2 2 6 6 K.k t w w t k K.6 6 6 6 P.6 : ; ; : 6 6 6 6 6 6 6 6 6 6 6 6 : : : : : : ; ;         2 L.K.K.5.b.c.c.",
"6X6X6X;XI 6 6 6 2 2 2 2 6 6 6 k f d d s 4 6 6 6 6 6 6 4 > $ $ > 6 6 6 6 6 6 6 6 6 6 6 6 : - - - - - - - @ + + + < k k k 5.z.z.z.",
"{ { { H 3 2 2 2 : : : : : : : 1 U.T.T.U.: : : : &     @ 8 t t 8 = : : : 2 2 2 2 2 2 2 2 &               8 t t t t t t t _ -.-.-.",
"( ( ( H 3 2 2 2 : : : : : : - 2 Y.!.!.I.: : : -       X 8 w w t = ; : : 2 2 2 2 2 2 2 2 &               8 w w w w w w 7 _ *.&.*.",
"( ( ( H 3 2 2 2 : - : : : : - 1 Y.^.^.I.: : : -       X 8 w w q = ; ; : 2 2 2 2 2 2 2 2 &               8 w w w w w w w ` *.&.&.",
"` ( ` H 4 6 6 6 2 : : : : : : 2 P.I.I.P.: - - & + + + o t u u r $ $ $ $ 2 2 2 2 2 2 2 2 &       . + + o t u u u e w 7 w } ;.;.;.",
"+.+.+...R.Y.Y.Y.Y.Y.Y.I.6 6 6 6 : : : :       + 8 w w w n N N m e t t q < 2 2 2 6 6 6 6 -       8 t q t v N N N i w w w O.F.F.F.",
"#.#.#.o.W.Y.Y.Y.Y.Y.Y.I.P.6 6 6 : : : -       . q w w e m V V M e w 7 t < 2 2 2 6 6 6 6 -     X 8 w w w n C V N z w w w w.H.F.F.",
"#.#.#.o.W.Y.Y.!.Y.Y.Y.I.P.L.P.6 : : : -       . q w w e m V V M e w w t < 2 2 2 6 6 6 6 &       8 w w w n V V N i w w w w.H.H.H.",
"&.$.*.o.R.Y.Y.Y.Y.Y.Y.I.6 6 6 5 : - - - + . . o e u u i B @.@. .r w w t < 2 2 2 6 P.P.P.: - - * t u u u n V V N z f f f O.C.C.C.",
"q.q.>.1.I P.P.P.P.P.P.6 : : : :       + 8 t q e n N M B u.B.B.y.z w w t $ : : : P.Y.Y.Y.U.I.I.T.` M M M N V V V E `.`.`.,.*.*.*.",
"q.q.q.1.I 6 6 6 6 6 6 6 : : : -       . t w w r M V V Z B.Z.Z.M.z w w t $ ; ; : P.^.Y.Y.Y.Y.!.W.[ V V V V V V V [.@X@X@X1.#.#.#.",
"q.q.q.1.I 6 6 6 6 6 6 6 : : : -       . q w w r M V N Z l.Z.Z.M.z w w t $ ; ; : P.^.Y.Y.Y.Y.!.W.[ V V V V V V V [.@X@X@X1.#.#.#.",
"q.q.q.1.I P.P.P.6 6 6 6 : : : ; @ @ @ # y r r z B Z Z @.B.H.H.N.z e e w $ : : : P.Y.Y.Y.Y.I.Y.T.{  . . . . . . ._.(.(.(.,.#.$.$.",
">.>.>.2.R.Y.Y.I.P.6 6 6 : : - % ) n n ] y.k.k.k.B.B.B.B.eXiXiXeX| m m n h 2 2 2 6 6 6 6 2 : : 2 ). X].].].].].].I.6 6 6 <.-.-.-.",
">.>.:.2.W.Y.Y.Y.P.6 6 6 : : - % M C V +.B.A.Z.Z.Z.Z.Z.H.iXaXaXyX$.V V M h 2 2 2 2 2 2 2 : - - : /.@X@X@X@X@X@X@XP.2 2 2 T >.>.>.",
">.>.:.2.W.Y.Y.Y.P.6 6 6 : : - % M V N +.B.Z.Z.Z.Z.Z.Z.Z.iXaXaXyX$.V V M h 2 2 2 2 2 2 2 : : : : /.@X@X@X@X@X@X@XP.2 2 2 T :.>.>.",
">.>.>.2.R.Y.Y.I.P.6 6 6 : : : h ]  . .| l.B.B.V.Z.Z.Z.Z.eXyXuXwX| M N n j 5 6 6 2 2 2 2 : : : : /.@X(.(.(.(.(.(.P.2 2 2 Q >.>.>.",
"h.h.h.8.P.P.P.P.P.P.l P.I.I.I.Y.]. X X[.| @.+.%.B.Z.Z.V.;.$.$.| z u u u Q.(.(.(.6 2 2 2 2 2 2 2 P.P.P.P.P.P.P.P.6 6 6 6 p.2X2X2X",
"h.h.h.8.I 6 6 6 P.I 6 P.Y.Y.!.^.@X@X@X X .N N +.B.Z.Z.V.@.N N M e w w t `.@X@X@X6 2 2 2 2 2 2 2 6 6 6 6 6 6 L.L.6 6 6 6 &X5X5X5X",
"h.h.h.8.I 6 6 6 6 l 6 P.Y.Y.Y.^.@X@X@X X .V N +.B.Z.Z.V.@.N V M r w w t ).@X@X@X6 2 2 2 2 2 2 2 6 6 6 6 6 6 L.6 6 6 6 6 &X5X5X5X",
"z.z.z.8.I 6 6 6 6 6 6 P.Y.Y.Y.^.(.@X+X X| V N +.B.V.V.B.@.N V M r w w t Q.@X@X(.6 2 2 2 2 2 2 2 6 6 6 6 I I I I l l l l &X4X2X2X",
"1X1XqX%X6 2 2 2 : : : : 2 2 2 2 6 6 6 P._.[.[.^ $.%.%.%.^ '.[.'.).).).E.U.I.I.P.6 2 2 2 2 2 2 2 2 2 5 4 D ` ` _ S d d d ..:.;.:.",
"0X0XwX;X4 2 2 2 : ; ; ; - - - : 2 2 2 6 (.@X@X X[ N N ] ].@X@X@X@X@X@X+XP.6 6 6 2 2 2 2 2 2 2 2 2 2 2 3 ) C V V z w w w n #.#.#.",
"0X0XwX;X4 2 2 2 : ; : : : : : : 2 2 2 6 (.@X@X X .V V  .].@X@X@X@X@X@X(.P.6 6 6 2 2 2 2 2 2 2 2 2 2 2 3 ) C V N z w w w n #.#.#.",
"0XqXqX;X4 2 2 2 ; ; ; ; = = = = 2 2 2 6 (.@X@X X[ N N ] ].@X@X@X@X@X@X(.P.K.P.6 2 2 2 2 2 2 2 2 2 2 2 3 ) N N N z t w w _ #.$.$.",
"h.h.h.1.1 : : > p 8 8 y F ) ) D U.I.I.Y.(.@X@X`.z i i z ).@X@X@X/././.^.Y.I.I.I.L.6 6 6 6 6 6 6 : : : = J K K K h j h h <.q.q.q.",
">.>.>.X.= : ; $ t w w i N C C [ W.!.Y.^.@X@X@X`.t w w t Q.@X@X@X^.Y.Y.Y.Y.Y.Y.Y.P.L.6 L.6 6 6 6 : - : : 6 K.K.K.K.K.K.K.5.h.h.h.",
">.>.>.X.= : ; $ t w w i N V V [ W.Y.W.^.@X@X@X`.t w w t Q.@X@X@X^.Y.Y.Y.Y.Y.Y.Y.P.L.L.P.6 6 6 6 : ; : : 6 6 K.6 6 6 6 6 5.h.h.h.",
">.>.>.X.= : : $ w e w i V V C [ W.^.^.^.(.@X@X/.f w w t Q.@X@X(.^.Y.Y.Y.Y.Y.Y.Y.P.6 6 6 6 6 6 6 : - : : 6 K.6 6 6 P.K.l 5.h.h.h.",
"l.l.B.i.3 2 2 h b b b  .u.u.u.g..X(.(.(.I.I.I.I.E.E.E.E.^././.^.^.Y.Y.Y.P.P.P.P.: - - - - - - - & @ @ & : : : : P.I.Y.I.5.f.q.q.",
"Z.Z.A.i.4 2 2 h M C N %.V.Z.Z.S.@X@X@X(.P.6 6 P.OX@X@X@X^.Y.Y.Y.Y.Y.Y.Y.P.6 6 6 &                       - : : : P.^.!.Y.5.q.q.q.",
"Z.Z.A.i.4 2 2 h M V N %.V.Z.Z.S.@X@X@X(.P.6 6 P.(.@X@X@X^.Y.Y.Y.Y.Y.Y.Y.P.K.6 6 -                       - : : : P.^.!.Y.5.q.q.q.",
"Z.Z.A.i.4 2 2 h M V N %.V.Z.Z.S.@X@X@X(.P.6 6 P.(.@X@X@X^.Y.Y.Y.!.!.Y.Y.P.6 6 6 &                       - : : : P.Y.!.!.5.f.q.q.",
"t.t.t.4.U.P.P.U.E ^ ^ ^ #X#X#X|./././.^.6 6 6 6 6 6 6 6 6 2 2 2 6 6 6 6 : : : ; O p O O O O O p S S S S % - : : 2 2 2 2 7.D.m.m.",
">.>.>.2.W.!.Y.^.@X@X@X@X@X@X@X(.^.Y.Y.I.2 2 2 2 : - - - - - - : 2 2 2 2 @       8 7 w 7 7 w w e m C C N g - : : : - - ; 7.J.J.J.",
">.>.:.2.W.Y.Y.^.@X@X@X@X@X@X@X(.^.Y.Y.Y.6 2 2 2 : ; : : : : : : 2 2 2 2 &       8 w w w w w w e m V V N g - : : : : ; ; 7.J.J.J.",
">.>.:.2.W.Y.Y.^.@X@X@X@X@X@X@X(.^.Y.Y.Y.6 2 2 2 : ; : : : : : : 2 2 2 2 &     X 8 7 w w w w w e m V V N g ; : : ; : : : 7.J.J.J.",
"l.l.l.i.I.P.P.P.6 6 6 6 6 6 6 6 6 2 2 6 P.P.P.P.P.P.P.P.6 2 2 2 : : : = O p p 8 x v v v v v v b x.<X<X<Xi.3.3.3.A p p p X.j.j.j.",
"F.F.H.d.I 6 6 6 : - - - - - - - : ; - : I.^.Y.^.^.^.^.Y.P.6 P.6 : : : = q w w e n C V V V V V +.wXsXaXaXJ.A.A.Z.F 7 w w ..q.q.q.",
"F.F.H.d.I 6 6 6 : ; : : : : : : : : : : I.Y.Y.Y.Y.Y.Y.Y.P.6 6 6 : : : = q w w e n V V V V V V +.wXaXaXaXJ.Z.Z.V.F w w w ..q.q.q.",
"F.F.H.d.I 6 6 6 : ; : : : : : : : : : : Y.Y.Y.Y.Y.Y.Y.Y.P.6 6 6 : : : = q w w e n V V V V V V +.wXaXaXaXJ.Z.Z.V.F w w w ..q.q.q.",
"g.g.g.4.4 6 6 3 a p p p p p p s S S S G I 6 6 P.P.P.P.P.g g g g 1 1 1 2 U U U U ] V V V e.r.r.r.2X5X5X5X*X#X-X#XR U U U ,.>.>.>.",
">.>.:.X.3 2 2 < w w w w 7 w w u N C C ] < 2 2 2 6 6 6 l t 7 7 t , 2 2 6 (.@X@X.Xo.V N V u.A.Z.Z.Z.Z.Z.Z.oX+X@X@X@X@X@X@X6.:.>.:.",
">.>.>.X.3 2 2 < t w w w w w w u N V V ] j 2 2 2 6 6 6 l t w w t , 2 2 6 (.@X@X.Xo.V V Z u.Z.Z.Z.Z.Z.Z.Z.oX@X@X@X@X@X@X@X6.:.>.:.",
":.:.:.X.3 2 2 < t w w w 7 w w u N N N ] < 2 2 2 6 6 6 l t 7 7 t , 2 2 6 (.@X@X.Xo.V V Z u.A.Z.Z.Z.Z.Z.Z.oX@X@X@X@X@X@X@X6.:.>.:.",
",X,X,X8.g g g s x x x c } } } O.x.c.c.x.! ! ! ~ U.I.P.I.K L L K 3 2 2 2 Y.^.^.W.S x x c =.e.e.e.s.&X&X&XQ.I.I.I.I.I.Y.Y.#Xm.m.m.",
"0X0XwX=Xe w w u N V N %.V.A.Z.J.aXaXaXiXH.Z.A.N.Q.!.Y.^.OX@X@X(.6 2 2 2 6 6 6 l d w w e n V N ] ].@X@X@XK.2 2 2 2 2 2 2 -XeXeXeX",
"0X0XwX=Xe w w u N V N %.V.Z.Z.J.iXaXaXiXH.Z.Z.N.Q.!.Y.^.(.@X@X(.6 2 2 2 6 6 6 l d w w e n V V  .].@X@X@XP.2 2 2 2 2 2 2 -XeXeXeX",
"0X0X0X=Xe w w u N V N %.V.Z.Z.J.aXaXaXiXH.Z.A.N.Q.!.Y.^.(.@X@X(.6 2 2 2 6 6 6 l d 7 7 e n V V B ].@X@X@XP.2 2 2 2 2 2 2 -XeXeXeX",
"3X3X3X*Xg g g g T <.<.,.e.e.e.t.5X7X7X3Xp.7.7./ U.P.P.I.Y.^.^.Y.6 6 6 6 6 6 K.I K L L L T <.<.Q `.(.(.(.P.P.P.P.L G G G Q 6.3.3.",
"F.F.H.a.4 2 2 6 (.@X@X'.N N N @.V.Z.Z.N.Q.!.!.Y.P.6 6 6 6 6 6 6 6 6 6 6 6 6 K.P.(.@X@X@X@X@X@X@X^.Y.Y.Y.Y.Y.Y.R.{ C V V x 0 0 0 ",
"F.F.H.a.4 2 2 6 (.@X@X'.B V N @.V.Z.Z.N.Q.Y.Y.Y.P.6 6 K.6 6 6 6 6 6 6 6 6 6 6 P.(.@X@X@X@X@X@X@X^.Y.Y.Y.Y.Y.Y.R.{ V V V x 0 0 0 ",
"F.F.H.a.3 2 2 6 OX@X@X'.N N N @.V.Z.A.N.Q.!.!.Y.K.6 6 6 K.K.K.K.K.K.K.K.6 6 6 K.(.@X@X@X@X@X@X@X^.Y.Y.Y.!.!.!.R.{ V V V x 0 0 0 ",
"D.D.D.n.W W W ~ }.}.}.5.;.;.e.e.u.u.u.g.{.{.{.{.XXXXXXXXR Y Y Y Y Y Y Y W ~ ~ ~ }.}.}.}.$X$X$X$X|.|.|.|.^ E E E o.+.+.+.` F F F ",
",X,X,Xm.Z.Z.Z.C.f.q.q.j.G.J.J.D.&.#.#.&.z.c.c.,XyXpXpXyXq.&.*.*.$.#.#.&.B.Z.Z.Z.j.h.h.z.,X,X,X,XG.J.J.G.;.+.#.#.-.>.:.>.q.h.h.h.",
",X,X,Xm.Z.Z.Z.C.f.q.q.j.G.J.J.D.*.#.#.&.z.c.c.,XyXpXpXyXq.&.&.&.$.#.#.*.B.Z.Z.Z.j.h.h.z.,X,X,X,XG.J.J.G.:.#.#.#.-.>.>.>.q.h.h.h.",
",X,X,Xm.Z.Z.Z.C.f.q.q.j.G.J.J.D.&.#.#.&.z.c.c.,XyXpXpXyXq.&.&.&.$.#.#.&.B.Z.Z.Z.j.h.h.z.,X,X,X,XG.J.J.G.;.#.#.#.-.>.:.>.q.h.h.h."
};
