/* XPM */
static char *_00a1dab621941adfcc25d3a60c120bbAoQczdBzeGDCsO3T[] = {
/* columns rows colors chars-per-pixel */
"64 64 103 2 ",
"   c #676766",
".  c #686867",
"X  c #666668",
"o  c #696769",
"O  c #6C6C6C",
"+  c #706F6F",
"@  c #6F706E",
"#  c #70706F",
"$  c #6F6E70",
"%  c #706F71",
"&  c #737373",
"*  c #797776",
"=  c #787877",
"-  c #777779",
";  c #787779",
":  c #7B7B7C",
">  c #807F7F",
",  c #7F7E80",
"<  c #807F81",
"1  c #838384",
"2  c #888787",
"3  c #888886",
"4  c #878789",
"5  c #888789",
"6  c #8C8B8C",
"7  c #908F8F",
"8  c #91908F",
"9  c #8F8F90",
"0  c #918F91",
"q  c #939394",
"w  c #989697",
"e  c #999997",
"r  c #979698",
"t  c #989799",
"y  c #9C9C9C",
"u  c #A09E9F",
"i  c #9FA09E",
"p  c #A0A19F",
"a  c #9E9EA0",
"s  c #A09FA1",
"d  c #A3A2A4",
"f  c #A8A6A7",
"g  c #A9A9A7",
"h  c #A7A7A8",
"j  c #A8A7A9",
"k  c #ABAAAB",
"l  c #B0AFAF",
"z  c #B1B1AF",
"x  c #AFAEB0",
"c  c #B0AFB1",
"v  c #B4B4B5",
"b  c #B7B7B9",
"n  c #B9B7B8",
"m  c #BBBBBC",
"M  c #C0BFBF",
"N  c #C1C0BF",
"B  c #BFBEC0",
"V  c #C1BFC0",
"C  c #C3C3C3",
"Z  c #C8C7C7",
"A  c #C8C9C7",
"S  c #C7C6C8",
"D  c #C9C7C9",
"F  c #CCCCCD",
"G  c #D0CFCF",
"H  c #D1D0CF",
"J  c #CECED0",
"K  c #D0CFD1",
"L  c #D1CFD1",
"P  c #D3D2D1",
"I  c #D1D1D2",
"U  c #D4D2D3",
"Y  c #D5D4D3",
"T  c #D5D3D4",
"R  c #D4D2D5",
"E  c #D5D5D7",
"W  c #D8D6D7",
"Q  c #D6D6D8",
"!  c #D9D8D8",
"~  c #D8D8DA",
"^  c #DCDADB",
"/  c #DBDBDC",
"(  c #DCDBDD",
")  c #DCDCDC",
"_  c #DDDDDE",
"`  c #DEDEE0",
"'  c #DFDFE1",
"]  c #E0DEE1",
"[  c #E2E2E3",
"{  c #E4E3E3",
"}  c #E3E2E4",
"|  c #E4E3E5",
" . c #E4E4E6",
".. c #E6E6E8",
"X. c #E7E6E8",
"o. c #EAE9E9",
"O. c #ECEAEB",
"+. c #EFEDEF",
"@. c #F0EEEF",
"#. c #EFEDF0",
"$. c #F0EEF1",
"%. c #F3F2F4",
"&. c #F6F6F8",
/* pixels */
"& & & & & & & & O o O o o O O O o o o o o % & & & O O & = * * * * * ; ; ; ; ; ; ; ; & O & & & & & & & & & & & & & & & O O & & & ",
"; j v v v v k y q r j v v v v v 6 & d k k k k k k k k j k k k k k 0 + 6 w w w w w w t w w w w w w w 6 & y k k k k k k k k k k k ",
"4 / ......[ _ } ] [ |  . . . ...V < D R R R R U U U I k M Y U U Y M & w s d d u y d d d d d d s s d j : m L I U U U U U U U U U ",
"4 /  .|  .` _  .| | | | | | | | C < S I L L L I I I H N Z H H H I M & r y y u w r y y y u y y y y y f : M L G L L L L I G C F I ",
"4 F E } } } } } | | | | | | | | C < S D F L L L H H H H H F C G I M & w u y y u u u u d d y t y y u d : M U L F L D F G I Z F I ",
", D Q } } } } } | | | | | | |  .V : C C F L L L L G G G G F N F I m & 6 4 1 2 6 2 1 1 2 0 r w t t t y ; k j k 6 l m D G I I I G ",
"O 5 t r r r r r t w r r w w w w 5 O 1 0 0 0 0 0 q q q 8 7 7 0 7 q 4 O + o o o o o o O O o O & & & & & O & O & O O & 1 6 q q 8 7 ",
"r q q q q q q 4 O : w w r r r w t y w w w w w w 6 O : q q 0 0 q q q q q r r r r q 6 & O & % % % % & & & & & & & & & O o & q q q ",
"~ / ( / / ~ ~ J < 1 E  .+.#.$.$.$.$.$.#.#.$.#.$. .6 f E I I E W W E U R ~ ^ ~ E I I 6 2 n n n n n m m m m m m n m m v 1 y { o.O.",
"C J I I I I L J 5 1 k D %.%.%.%.%.%.%.%.%._ L %.$.q s I I G F I H H I I I I H I C F r r I I I I I I U U U U C m I I E t u @.&.%.",
"m m J I I I I J 5 m $.$.%.%.%.%.%.%.%.%.%.L S %.#.q y I I F V F H H I I I I I I F I r r G L I I H H I I L L C C I I I t d %.%.%.",
"F C F I I R I I 5 m &.%.&.&.&.&.&.%.%. .] %.%.&.$.q y G F F F I I I G I F I I I I R w q I I U I I I I L F G I U I I U y u %.&.&.",
"r t a d d d k j ; 5 C C C C C F F D v 5 1 m G F N > : r 5 2 5 q r q 6 8 5 y j g j k 1 : f k k k k k k k k k k k k k k 4 : m C C ",
"O X o o o o o o o . O O O O o O O # & & & & ; : ; = = = & & & & & O o & : : : : * + O O O & : : : : & O * > : : : : > : : > > : ",
"& r y y y y y y y y y y y y y y 1 & d j g g g d d d d d d d d d d q = n A A A C C v r 1 6 v C Z C Z k & v D Z Z Z Z Z Z Z Z Z D ",
"1 D J I I I I I I I I I I I I Y v & p p p p e t y y i i i y u u p d : m F I H I I U U F F I I G j m C ; V U I U I U I I I I I I ",
"1 D D m m F H C A H H H H F C H m & e p y y q q y y y y y y y i i d : k C I H H H H H H H F F G C D C : m I H H H H H H H H I D ",
"1 D R m d C H H H I H H I A v F m & e p y y p y i y y y i y y i i d > N H I H I H H H H H H D F I Y C : m I I I I I I I I I I F ",
"& h v k y r r d z g k k z n m C g O 1 3 1 1 1 1 1 1 > 4 3 5 6 q r e & k C C C C C C N C C C C C C C v & d C C C C C C C C C C C ",
"O $ & & O O O o O O O O @ & & & & O O O O O O O O O o .   . o o O O o O & & & & & & & & = ; ; ; ; ; & O & ; = = ; ; = = = ; ; ; ",
"v v v v v v v j & q v v v v v v v v v v v v v v j ; ; q q q q 6 6 q q 6 6 6 6 6 6 5 @ 6 m C C C C C C C C C C C C C m : ; t y y ",
"I I I I I I I I 3 d I I I I I I I I I I I I C A I 6 y I I I I I I I I I I I I I I F 6 j [ I %.&.+.@.%.%.@.o.%.%.%.%.%.d : y y i ",
"I I I I I I I L 5 d I I I I I I I I I I H F C F I q y I H I I I I I I I I I I G F I r j o.j I %.+.+.%.%.+.+.%.%.%._ o.d ; y t y ",
"I I L S B C F L 5 d I I I D D I I I I I I I I I I q y I D N D I I G F F F I D j D I r j &. ._ %.%.%.%.%.%.%.%.&.%.` o.d : y y y ",
"J J J B x m F F 4 y F F F C C F F F F F F F F F F 6 r F C k m I I F F F F F D m F F q y +.%.%.%.$. .+.%.%.o.F m _ o.+.d ; t t r ",
"6 6 6 6 6 6 6 5 & & 5 5 5 5 6 6 6 6 6 6 6 6 6 6 5 & & 5 6 6 6 6 6 6 6 6 6 6 6 8 6 5 & & q t t t t r t t y q & o ; 5 r ; o & & O ",
"& r y t w w t t t t t t t t t w : O 6 r r r r r r r t r r t r r r 1 O ; ; & # & ; 1 5 8 r r r r r r 1 O 5 r t t r r r r r r r w ",
"5  .%.+.O.O.O.o.o.o.o.o.o.o.o.o.m : C I I I I I I I I I I I I I I m & k C m m C C F F F H I I I I I m ; m I I I I C D I I I I I ",
"5 ..%.%.%.%.%.%.%.%.D E %.%.%.%.A > C I I I I I I I I I I I I I I m ; m I I I I I F F F G G I I I I C : m C m I I C D I I I I I ",
"5 ..&.%.&.&.%.%.&.o.t C &.&.&.&.D > C F F F F F F F F F G G F F I C : B C B F I I I m C I I F I I I C ; m C C I I I I I I I I I ",
": Q  .R D C F I J C m F E F D / B : C b C I I I I I I F S I I I R B : B F m F I I I F G I L C F I I C ; d j k v n m v v v v m C ",
"o : , & O O O & & O $ & & O O - : O r d d j j j j j j h d h h h h w & q j j j j j j k j j j d j j j t O o o o o O O O O O O & ; ",
": : : , , , , : $ & 1 1 1 1 1 1 1 1 1 1 1 1 1 1 : O & : : : : : : : : : : : : : : : $ & 1 1 1 1 1 1 1 1 1 1 1 1 1 1 : O & 1 1 1 ",
"h h h h h h h k : d E I R E R L R I R E ~ E I R D 1 , t y y t t t t t t t t t t t d 1 q F F F F F F F F F F F F F F D 6 ; C _ / ",
"a a a a a a y h 4 d R L I E B D I I I I E R I I R q ; 9 9 9 9 9 9 9 9 9 9 9 9 0 9 r 6 r I I R D F I I I I I I I I I E a $ C .. .",
"a a a y y a y h 4 d I J I I J J I I I I I I L J I 0 ; 9 9 9 9 9 9 9 9 9 9 9 0 9 4 r 6 r I I I F J J I I I I I I I I R y 1 Q  . .",
"a s s y y a y j 4 d R I R R I I I I J F F J I I R q ; 9 9 q q q q q q q q q 9 6 4 r 5 r I F D F J F J J I R R I I I E y 9 `  ...",
"q q q q q q q t : 6 m B B B B C C B a 1 4 9 m C m 4 % 1 4 4 4 4 4 4 4 4 4 5 4 4 4 6 , 1 k 5 : 5 9 4 6 r k v m m m m B 9 5 D F m ",
"O & & & & & & & & & - ; ; ; ; : - & & & & & : , ; & $ & & & & & & O O $ & & & & & & & & & O $ $ $ $ O o $ & ; ; : : : & & ; : & ",
"; x m m m m m m m m m m m m m m q ; B J F F F F F F F F F F F F F d & v C C C B m m m B B C C C B m a & h m m m m m m m m m b b ",
"1 D R R R R R R R R R R R R R R n 1 ..&.&.&.&.&.%.%.&.&.&.&.&.&.&.J : F / ~ Q E R R E E E E E E E R C : m R R R R R R R R E F S ",
", D I I I I I I I I L L I I I I b 1  .%.%.%.%.%.+.#.%.%.%.%.%.%.&.J : C I I I I I I I I I I F F J I C : m I F C J I I I I I I J ",
"1 D R R R R I I I I I I I J F I m 1  .%.%.%.%.%.%.&.%.%.%.%.o.+.&.L : C R R R R R R R R R I C J I R C : B I J F J I I I R R R I ",
"- m C C C S m v v B C C C D C F v : ~ #.#.#.+.+.#.#.#.+.} O. .o.#.F & y v v v v v v v v v v v v v b h - v F F F F D k j v m D J ",
"o ; - - & ; & O O & ; ; - 1 5 4 : O 1 q q r q q q q q q 6 0 q q q 4 O o O O O O O O $ O O O O O O O O O ; 4 4 4 5 1 $ O O $ : 4 ",
"j j j j j k j y & 4 d h k k d 1 O O & 6 d d d a r & < y y a a a y a d a a a d d d t & - 9 q q q q q q q q 0 q q q q q & < j j h ",
"%.%.%.%.%.` +...4 d R R E R R D a t b J R R R I I 6 a I I R R R R R R R R R J C J I q , d d d d d d d d d d d d d d k 9 d %.%.%.",
"%.%.%.%.+./ #.O.6 d I b k F I R I I I I I I L I I q a I L I I I I I I I I I C 9 v R r : a a y a a a a a a a a a a a d 9 d %.%.%.",
"%.%.%.%.%.%.%.O.5 d R v 1 v R I J J J J D F J I R 0 a R J I I I I J J J J I F m S I r : a a r w a a a a a a a a a a d 9 d %.%.%.",
"&.&.&.&.%.%.%.O.5 a I I C D I I L I I I F J I I I 9 a E I R R R I I I I I I I R R R r : a d y r t y y y y y y a a a d q y %.&.%.",
"v v v v v v v k - ; y d d d d s a d s a d a a a y - 1 v v v v v v v v v v v v v v v 4 o , 1 : & & & - - & & ; : : : 4 : ; k v v ",
"$ : 1 1 4 4 1 4 4 1 1 4 4 4 4 1 & O : < < , , , , < , 1 1 1 1 1 4 ; $ 1 5 5 5 5 5 5 4 4 1 4 4 4 4 4 & $ q d d d d d d d d d d d ",
": B F I I I I I I I I I R E / _ j & y d d d d d s d d d d d d d h d ; m F F F F F F F F F F F F F F v ; B R R R R R R R R R R R ",
", D R I I I I I I I I I I I E ` m & r y y y y r 4 y a a a a a a a d , C I I I C v I I I I I I I I R C : m I I I I I I I I I I I ",
", D I I I L J L I I I I I I I R v & r a a a a r 4 y a a y y y a a d , C I I I D B J I I I I I I I R C : m I L J J I J F J I I I ",
", D R I I I R I I I I I I F J R c & t d s d a y t d d a a a t a d d , C F F I R I I I I I I I I I R C : B R I I I I I I I C D I ",
"& t d d d d d y r t d d r t j m y O 4 q q q 5 ; & 5 q r r q q q q q & q 4 6 t y t y a r r y h k a x d & a m m m m m m m m b m m ",
"& & & & & & & O O O & & $ & & - & & & & & & & & $ o $ & & & & & & & & & & % % $ $ O o o & & O & & & & $ O % & & & - & & & & % % ",
"r r r r r r r y - r m m m m m m m m m m m m m m b : r D D D D D D D D D D D D D F C 1 6 m m t k C B m n a q 5 t b B m 1 & 6 q 0 ",
"q 0 9 q q q 9 y 1 d R R I I I I I I R R I R R I E 0 j } J [  . . . . . . . . . .F C r r R R J J I I I R I I F F F I E y 9 F I I ",
"q q 9 9 0 q 9 y 4 d I I I I I I I I I I I I I I R q j } L ` } } } } } } } } } | D D t r I I I I F C F I I I I J m S R y q I I I ",
"q 9 6 9 9 9 9 y 4 d R I I I J S I I R I I I I I R q j  . .} } } } } } [ [ [ [ [ [  .t r F m F I D k D I I I I I F F I y q I R R ",
"6 6 6 6 6 6 6 r , q v m B m m m v d j v k k v k B 6 t ~ _ _ _ _ _ _ _ ( ( / / F Y ~ q 3 C v C D D D D D D D D D D D D r 4 C k d ",
"% $ $ $ $ % & & & O $ & & & & & & O O O o O O O & $ $ 4 6 5 5 5 5 5 5 5 5 6 6 3 3 3 & O : 1 1 1 1 1 4 4 4 4 4 4 4 4 1 & O : & O "
};
