/* XPM */
static char *_053fcc773014a3cf766869cd4bdf8fbGUx7CBv8EJWt5eLT[] = {
/* columns rows colors chars-per-pixel */
"64 64 148 2 ",
"   c #73664F",
".  c #746752",
"X  c #756955",
"o  c #7A6C54",
"O  c #766C5B",
"+  c #796E5D",
"@  c #7E7056",
"#  c #7D715F",
"$  c #676767",
"%  c #676867",
"&  c #6C6965",
"*  c #676768",
"=  c #676868",
"-  c #696969",
";  c #746D62",
":  c #786F61",
">  c #726F6B",
",  c #7D7364",
"<  c #75716C",
"1  c #7B756C",
"2  c #7F796E",
"3  c #757575",
"4  c #7B7673",
"5  c #7B7976",
"6  c #7E7E7E",
"7  c #837457",
"8  c #847559",
"9  c #89775C",
"0  c #8B7B5F",
"q  c #827561",
"w  c #897763",
"e  c #857863",
"r  c #8D7B62",
"t  c #837A6D",
"y  c #897C69",
"u  c #927E64",
"i  c #837C73",
"p  c #8B7E74",
"a  c #807F7D",
"s  c #8E816E",
"d  c #958465",
"f  c #94836C",
"g  c #9A856C",
"h  c #978869",
"j  c #9D8C6E",
"k  c #8B8275",
"l  c #83817D",
"z  c #8B847B",
"x  c #8F887F",
"c  c #938574",
"v  c #9D8673",
"b  c #958975",
"n  c #9E8B73",
"m  c #92857A",
"M  c #9B8678",
"N  c #96897C",
"B  c #9D8D7B",
"V  c #9E907D",
"C  c #A38C75",
"Z  c #A58E7B",
"A  c #A98F7A",
"S  c #A39376",
"D  c #A6947A",
"F  c #AB927C",
"G  c #AA9A7F",
"H  c #B1957F",
"J  c #7F7F80",
"K  c #807F80",
"L  c #7F8080",
"P  c #828282",
"I  c #898784",
"U  c #8C8985",
"Y  c #8E8E8E",
"T  c #948B84",
"R  c #9E8F83",
"E  c #938F8C",
"W  c #988F89",
"Q  c #9F9185",
"!  c #93908E",
"~  c #9C938C",
"^  c #8F8F90",
"/  c #908F90",
"(  c #8F9090",
")  c #929190",
"_  c #9A9492",
"`  c #A18F80",
"'  c #A29284",
"]  c #AC9582",
"[  c #AE9984",
"{  c #A3958A",
"}  c #A99789",
"|  c #A6988E",
" . c #AB9A8C",
".. c #B19681",
"X. c #B19884",
"o. c #B99D86",
"O. c #B59E8C",
"+. c #B59F8D",
"@. c #BB9E88",
"#. c #A09790",
"$. c #A69A92",
"%. c #A39B96",
"&. c #AD9D91",
"*. c #AA9D94",
"=. c #A69E99",
"-. c #B2A08B",
";. c #B5A08F",
":. c #BFA28A",
">. c #A8A099",
",. c #B4A193",
"<. c #B9A392",
"1. c #B9A492",
"2. c #BAA494",
"3. c #BBA594",
"4. c #BBA996",
"5. c #B2A298",
"6. c #BBA798",
"7. c #BCA798",
"8. c #BDA898",
"9. c #BFAC9E",
"0. c #C0A28B",
"q. c #C5A68E",
"w. c #C5A88F",
"e. c #C6A690",
"r. c #C4AA96",
"t. c #CCAD95",
"y. c #C1AC9E",
"u. c #CCAF9A",
"i. c #D0AF97",
"p. c #D0AF98",
"a. c #CDB096",
"s. c #D1B199",
"d. c #C2AEA2",
"f. c #C2B0A2",
"g. c #C5B2A6",
"h. c #C8B6A7",
"j. c #CCB6A6",
"k. c #C7B5A8",
"l. c #C9B7AB",
"z. c #D3B7A0",
"x. c #D4B9A5",
"c. c #D9BCA6",
"v. c #D3BBA9",
"b. c #DABFA9",
"n. c #CEBDB2",
"m. c #D0BFB5",
"M. c #DDC2AC",
"N. c #D1C1B6",
/* pixels */
"G G G [ +.+.+.3.d.d.d.3.X.X.X.+.7.7.7.;.n j j D k.l.l.g.;.+.+.1.h.l.l.k.8.7.7.8.d.d.d.y.,.+.+.<.y.d.d.d.8.7.7.3.X.X.X.[ D S S S ",
"G G G [ +.+.+.3.d.d.d.3.X.X.X.+.7.7.7.;.n j j D k.l.l.g.;.+.+.1.l.l.l.k.8.7.7.8.d.d.d.y.,.+.+.<.y.d.d.d.8.7.7.3.X.X.X.[ D S S S ",
"G G G [ +.+.+.3.d.d.d.3.X.X.X.+.7.7.7.;.n j j D k.l.l.g.;.+.+.1.l.l.l.k.8.7.7.8.d.d.d.9.;.+.+.<.y.d.d.d.8.6.6.3.X.X.X.[ D S S S ",
"S S S B T T T T T T T z i i i i z z z z z z z z ~ _ _ _ ~ ~ ~ #.=.=.=.%.W E E T c c c c g g g g n n n n f f f f m T T T } -.+.-.",
"j j j m 6 6 6 5 3 3 3 - $ % % $ $ $ $ - 6 6 6 J 6 6 6 P Y Y Y Y Y Y Y Y L 6 L 6 X . . . 7 8 8 8 8 8 8 7 o   . X 5 6 6 P &.8.7.7.",
"j j j m 6 6 6 5 3 3 3 3 = = = = = = = - 6 6 6 J J J J P Y Y Y Y Y Y ^ Y P 6 6 5 X . . X 8 8 8 8 8 8 8 8 o . . X 5 6 6 l &.8.7.7.",
"j j j m 6 6 6 5 3 3 3 3 = = = = = = = - 6 6 6 P J 6 J P Y Y Y Y Y Y Y Y P 6 P 5 X . . X 8 8 8 8 8 8 8 8 o . . X 5 6 6 l &.8.7.7.",
"D D F N 5 5 5 4 , , , t p p p t : : : , 5 5 5 5 6 6 J 6 5 5 5 5 6 P P 6 5 5 5 4 1 1 1 1 8 8 8 9 f g g g t 1 1 1 5 6 6 l  .<.<.<.",
"X.X.X.N 3 3 3 1 8 8 8 d D D D g 8 8 8 q 3 3 3 3 6 6 J 5 = * * = 3 3 3 3 3 3 3 3 6 J J a 9 8 8 0 C D D A I 6 J J J J J l } +.+.+.",
"X.X.X.N 3 3 3 1 8 8 8 d A A A g 8 8 8 q 3 3 3 3 6 6 J 5 = = = - 3 3 3 3 3 3 3 3 6 6 6 a 9 8 8 0 C A A A z L J J J J 6 l } +.+.+.",
"X.X.X.N 3 3 3 1 8 8 8 d A A A g 8 8 8 q 3 3 3 3 6 6 6 5 = = = - 3 3 3 3 3 3 3 3 6 6 6 a 9 8 8 0 C A A A z P J 6 6 6 6 l } ;.+.+.",
"X.X.X.M , , , y g g g A :.:.0.] k k k z 6 5 5 5 5 5 5 3 = = = = - - - - - - - 3 5 5 5 4 i t t i m m m m 5 5 5 5 5 5 5 6 ' X.X.X.",
"X.X.X.v 8 8 8 d A A A @.s.s.s.1.^ / / Y P 6 6 6 3 3 3 3 = = = = = = = = = = = = 3 3 3 3 6 J J J 6 6 6 6 3 3 3 3 3 3 3 3 ` X.[ [ ",
"X.X.X.v 8 8 8 d A A A @.s.s.s.,.Y Y Y Y P 6 6 6 3 3 3 3 = = = = = = = = = = = = 3 3 3 3 6 6 6 J 6 6 6 6 3 3 3 3 3 3 3 5 ` X.X.X.",
"X.X.X.v 8 8 8 d A A A @.s.s.s.1.Y ^ ) Y P 6 6 6 3 3 3 3 = = = = = = = = = = * = 3 3 3 3 6 J 6 6 6 6 6 6 3 3 3 3 3 3 3 5 ` X.X.[ ",
"+.+.+.' k k k m R R R { ,.,.,.~ P P P 6 3 3 3 3 - - - > : : : : : : : , i p p p z m m k t t t 2 3 3 3 3 3 - - - 3 3 3 5 } 1.<.<.",
"7.7.7.*.^ Y ^ ^ ^ ^ ^ ^ Y Y Y I 3 3 3 3 = = = = = = = & 8 8 8 8 8 8 8 0 A D A D A A D C 9 8 8 7 % = = = = = = = 3 3 3 4 ,.d.d.d.",
"7.7.7.*.^ ^ ^ ^ ^ ^ ^ ^ Y Y Y I 3 3 3 3 = = = = * * = & 8 8 8 8 8 8 8 0 C A A A A A A C 9 8 8 8 % = = = = = = = 3 3 3 4 ,.d.d.d.",
"7.7.8.*.^ Y ( ( ^ ^ ^ ^ Y Y ) I 3 3 3 3 = * * * $ $ $ & 7 8 8 8 8 8 7 0 C A A A A A A C 9 8 8 7 % = = = = = = = 3 3 3 5 ,.d.d.d.",
"3.3.3.$.Y Y ^ Y U U U U U U U l 1 1 1 1 2 2 2 2 p p p k g j g j C C C S X.o.o.X.D A A C y e e , - - - - > ; ; > i i i z ,.y.y.9.",
"+.+.;.| Y Y Y U J 6 6 6 6 6 L i 8 8 8 r C A A ..t.a.t.t.t.t.t.s.b.M.M.b.s.p.s.e.F A A Z l 6 6 6 3 3 3 3 q 8 8 9 v A A D <.8.8.6.",
"+.+.+.| Y Y ^ U 6 6 6 6 6 6 J i 8 8 8 r C A A ..t.s.s.s.s.s.s.s.M.M.M.b.s.s.s.e.F A A Z l 6 6 6 3 3 3 3 q 8 8 8 C A A D <.7.7.6.",
"+.+.+.| Y Y Y U J J 6 6 6 6 6 i 8 8 8 r C A A ..t.s.s.s.s.s.s.s.M.M.M.b.s.s.s.e.F A A Z l 6 6 6 3 3 3 3 8 8 8 8 C A A A ,.7.7.6.",
"3.3.3.$.U U U I J J 6 P P P P z t y y s Z ` ` ] w.w.w.e.i.s.s.s.c.c.b.x.r.8.8.<.Z B B N 6 6 6 6 5 5 5 4 t y y y B ` ` ` ,.7.7.6.",
"d.d.d.$.6 6 6 6 6 6 6 I Y Y ^ Y Y Y Y Y E E E ! F D D ..t.s.s.s.s.s.s.r._ ! ! Y P l l 6 3 3 3 3 6 6 J K U Y Y Y E E E ! 5.7.7.6.",
"d.d.d.$.6 6 6 6 J J 6 I Y Y ^ ^ ^ ^ ^ Y Y Y Y E A A A H t.s.s.s.s.s.s.r.) Y Y Y P 6 6 6 3 3 3 3 6 6 6 P Y ^ Y ^ Y Y Y ) 5.8.7.6.",
"d.d.d.$.6 6 6 6 J J J I ) ) ) ) ) ) ) Y Y Y ^ ! A A A H t.s.s.s.s.s.s.r._ Y Y Y P 6 6 6 3 3 3 5 6 6 6 P Y Y Y Y Y Y Y ) 5.8.7.7.",
"8.8.y.{ 6 6 6 6 J J J P I I I I I I I I U U I U ` Z Z ] 8.r.r.r.r.r.r.,.Y U U U 6 6 6 5 3 3 3 3 5 5 5 5 I U U U U U U Y &.,.,.,.",
"X.X.X.T 3 3 3 5 a 6 6 3 = = = = = = = - 3 3 3 6 Y E E ! ) ) ) ) ) ) ) Y P L P 6 3 3 3 3 = = = = = = = = 5 P P P P P P P B D D S ",
"X.X.X.N 3 3 3 5 a a 6 3 = = = = = = = = 3 3 3 5 Y ^ ^ Y Y Y Y Y Y Y Y Y P 6 6 6 3 3 3 3 = = = = = = = = 5 6 J J 6 6 6 l B S S S ",
"X.X.X.N 3 3 3 5 a a P 3 = = = = * = * = 3 3 3 6 Y ) Y Y Y Y Y Y Y Y Y Y P 6 J 6 3 3 3 3 = * * = = = = = 5 6 J J 6 6 6 P B S S S ",
"X.X.X.T 5 5 5 5 5 5 5 3 & & & > < < < < 3 3 3 3 I I I I U U U U U U Y U 5 5 5 5 1 1 1 1 < < < > & & & & 5 6 6 6 6 6 6 P V D D D ",
"X.X.X.{ Y Y Y 6 = = = : 8 8 8 u A A A c - = = = = - = - 3 3 3 5 J P P 5 O X X X 8 8 8 0 C A A v o . . X < 3 3 3 6 6 6 P { +.+.+.",
"X.X.X.{ Y Y ) 6 = = = : 8 8 8 d A A D M - = = = = = = = 3 3 3 3 6 J J 5 X . . X 8 8 8 0 C A D C o . . X < 3 3 3 6 6 6 P } ;.+.+.",
"X.X.X.{ Y Y ) 6 = = = ; 8 8 8 u A A D M = $ $ $ $ $ $ = 3 3 3 3 6 6 J 5 X . . . 8 8 8 0 C A A C o . . . < 3 3 3 6 6 J P } +.+.+.",
"X.X.X.{ Y Y ) a % % % : 0 0 0 f A A A B i 4 4 4 4 4 4 4 5 5 5 6 6 6 J 5 , + + # r 0 0 u F ....A , + + , 5 5 5 5 P P P P } +.+.+.",
"+.+.+.| Y Y ( i . . . w C C C A A A A ..r.t.r.r.r.e.t.3.E Y Y U P 6 6 P Y Y Y E A C C F r.t.t.r.! Y Y Y Y Y Y Y Y Y Y E  .+.+.+.",
"+.+.+.| Y Y ( i . . . w A A A A A A A ..t.s.s.s.s.s.s.r.! E Y Y P 6 6 P Y Y Y E A A A ..t.p.s.r._ Y ^ ^ Y Y Y ^ Y Y Y )  .+.+.+.",
"+.+.+.| Y Y ) i . . . w A A A A A A A ..t.s.s.s.s.s.s.r._ Y ) Y P 6 6 P Y Y Y E A A A H t.s.s.r._ Y Y ^ Y Y Y ^ Y Y Y )  .+.+.+.",
"X.X.X.{ Y Y Y a + + O y Z Z Z F H F F @.s.s.s.s.r.r.r.3.U U U I 6 6 6 P Y Y Y E Z Z Z ] r.r.r.8.! Y Y Y U U U Y U U U Y &.,.,.,.",
"C C C m P P P I U U U Y E E E $.t.t.t.s.b.M.M.j._ _ _ Y - - - - 3 3 3 5 P P P P E E E ! _ _ _ ! P P P P 5 3 5 5 5 5 3 5 ,.d.y.y.",
"j j j m 6 6 6 I Y Y Y Y ^ Y Y $.s.s.s.s.M.M.M.j.) ( ^ U = = = = 3 3 3 3 6 6 6 P Y Y Y Y Y Y Y Y P 6 6 6 3 3 3 3 3 3 3 5 ,.d.d.d.",
"j j j k 6 6 6 I Y Y Y Y Y Y Y $.s.s.s.s.M.M.M.j.) Y ) U = = = = 3 3 3 3 6 6 6 P Y Y Y Y Y ^ ^ Y P 6 6 6 3 3 3 3 3 3 3 5 ,.d.d.d.",
"S S S m 6 6 6 I Y Y Y Y Y Y Y $.r.r.r.u.v.v.v.f.Y Y Y I 3 - - > 3 3 3 5 6 6 6 P U Y Y Y U U U U a a a a 5 5 5 5 3 3 3 5 ,.d.d.y.",
"1.1.1.{ 6 6 6 P P P P P P P P U _ _ _ _ _ _ _ ! P P P P U U U U 6 6 6 6 6 6 6 6 P P P 5 O O O + 8 9 9 e I Y Y U P 6 6 P *.8.8.8.",
"8.8.8.{ 6 6 6 6 6 6 6 6 6 6 6 I Y Y Y Y Y Y Y U L 6 6 P Y Y ) Y P 6 6 6 6 6 6 6 J 6 6 6 X . . X 8 8 8 8 U ) Y Y P J 6 P &.8.7.7.",
"7.7.8.{ 6 6 6 6 6 6 6 6 6 6 6 I Y Y Y Y Y Y Y Y P 6 6 P Y Y Y Y P 6 6 6 6 6 6 6 6 6 J 6 X . . . 7 8 8 8 U ^ Y Y P 6 6 P &.8.7.7.",
"9.9.9.{ 6 6 6 6 6 6 6 6 6 6 6 P Y Y U Y E E E Y P P P P U Y Y U 5 5 5 5 a a a a l l l a 8 7 7 8 r r r r T E E E l a 5 l &.3.3.3.",
"n.n.n.=.3 3 3 3 - - - 3 3 3 3 2 e e e y Z Z Z ` Y Y Y U 5 5 5 3 O O O + 8 9 9 r C A Z F q.w.w.w.r.r.r.w.[ Z Z Z y 9 9 e D X.X.X.",
"m.m.N.>.3 3 3 - = * = - 3 3 3 1 8 8 8 r C A A Z E Y Y U 3 3 3 < X . . X 8 8 8 0 C A A ..t.s.s.s.s.s.s.i...A A A r 8 8 8 A X.X.X.",
"m.m.N.>.3 3 3 - = * = - 3 3 3 1 8 8 8 r A A A Z E Y Y U 3 3 3 < X . . X 8 8 8 0 C A A H t.s.s.s.s.s.s.t.H A A A r 8 8 9 A X.X.X.",
"n.n.m.*.3 3 3 < = = = - 3 3 3 1 8 8 8 r A A A Z Y Y Y U 3 3 3 < X X X o 8 8 8 0 A D A H t.s.s.s.i.i.i.t...A A A r 8 8 9 S X.X.X.",
"<.<.3.Z q q q y c c c p 3 3 3 4 i i i z E E E E I I I P 3 3 3 4 z z l z v v v C 0.e.w.e.c.c.c.z.@.X.X.X.Q E E E U z z x } X.+.+.",
"[ [ X.v 8 8 8 f D D D N 3 3 3 5 J J 6 P Y Y ^ Y P 6 6 6 3 3 3 5 Y ^ ( ! A A A ..t.s.s.s.M.M.M.x.F A A A E Y Y Y ( ( ^ )  .+.+.;.",
"X.X.X.v 8 8 8 d A A D m 3 3 3 5 6 6 6 P Y Y Y Y P 6 J 6 3 3 3 5 Y Y Y E A A A F t.s.s.s.M.M.M.x.F A A A E Y Y Y Y Y Y !  .+.;.;.",
"X.X.X.v 8 8 8 f A A A m 3 3 3 5 6 6 6 P Y Y Y U P J J 6 3 3 3 5 Y Y Y E Z A A F t.p.u.s.b.M.M.x.F A A A E Y Y Y Y Y Y E  .+.;.+.",
"<.<.<.{ z z z k u u u e O O O < 5 5 5 5 I I I P 6 6 6 6 6 6 6 6 P I I I T W E ~ $.$.$.$.>.>.>.=.~ E W W I I I I I I I I n C C C ",
"7.7.8.*.^ ^ ) z 8 8 8 o . . . : 3 3 3 3 6 6 6 6 6 6 6 6 6 6 6 6 6 6 6 P Y Y Y Y Y Y Y Y Y Y Y Y Y Y Y Y P 6 6 6 J J 6 a f d d d ",
"7.7.7.*.^ Y ^ z 8 8 8 o . . . : 3 3 3 3 6 6 6 6 J J 6 6 6 6 6 6 6 6 6 P Y Y Y Y Y Y Y Y ( Y Y Y Y Y E Y P 6 6 6 6 6 6 a f d d d ",
"7.7.7.*./ E ) z 8 8 8 @ . . . : 3 3 3 5 a P K a K K K 6 a a a a a a a P Y E Y Y Y Y Y Y Y Y Y Y Y Y E Y P a a a 6 6 6 a f d d d ",
"y.y.y.6.*.*.*.B 0 0 0 0 0 0 0 c { { { { $.$.$.| { { { ' Q R R R R R R ' { { { { { { { ' b b b b R ` ` ` { | | | { { { ' C n n n ",
"d.d.d.9.8.7.8.] r 0 0 d d d d S 8.8.8.8.8.8.8.3.;.+.;.+.X.X.X.X.X.X.X.X.X.X.X.X.X.X.X.[ g d d g A A A D <.8.8.8.,.+.;.+.G S S S ",
"d.d.d.y.7.7.8.] r 0 0 d d d d S 7.7.7.7.7.7.7.3.+.+.+.+.X.X.X.X.X.X.X.X.X.X.X.X.X.X.X.[ g d d g A A A F ,.7.7.7.,.+.+.+.G S S S ",
"d.d.f.9.4.4.4.D 0 0 0 d h d d S 4.4.4.4.4.4.4.3.;.;.;.X.[ [ [ [ [ [ [ [ [ [ [ [ [ [ [ G h d d h S D S F ,.4.4.3.;.;.;.-.D S S S "
};
